<ttFont>
          <CharString index="0">
            vlineto
            -106 callsubr
            return
          </CharString>
          <CharString index="1">
            26 -103 callsubr
            return
          </CharString>
          <CharString index="2">
            -53 -26 -83 callsubr
            return
          </CharString>
          <CharString index="3">
            hlineto
            -104 callgsubr
            return
          </CharString>
          <CharString index="4">
            5 -88 callsubr
            return
          </CharString>
          <CharString index="5">
            -5 -5 -26 vhcurveto
            return
          </CharString>
          <CharString index="6">
            134 813 -3 callgsubr
            -112 -62 callsubr
            101 -107 callsubr
            return
          </CharString>
          <CharString index="7">
            26 5 -5 -26 hvcurveto
            -157 vlineto
            -26 -5 -5 -26 vhcurveto
            -77 102 -87 callgsubr
            195 return
          </CharString>
          <CharString index="8">
            vlineto
            -97 callsubr
            return
          </CharString>
          <CharString index="9">
            hlineto
            -105 callsubr
            return
          </CharString>
          <CharString index="10">
            53 -26 26 -53 vhcurveto
            return
          </CharString>
          <CharString index="11">
            -90 callgsubr
            227 -107 callsubr
            return
          </CharString>
          <CharString index="12">
            hlineto
            14 11 3 6 7 hvcurveto
            return
          </CharString>
          <CharString index="13">
            -26 vhcurveto
            -40 hlineto
            -88 callgsubr
            return
          </CharString>
          <CharString index="14">
            158 -92 callsubr
          </CharString>
          <CharString index="15">
            -85 callgsubr
            vlineto
            endchar
          </CharString>
          <CharString index="16">
            -96 callsubr
            60 hlineto
            return
          </CharString>
          <CharString index="17">
            -26 -8 -8 -26 vhcurveto
            -135 262 callgsubr
            return
          </CharString>
          <CharString index="18">
            109 callgsubr
            302 80 callgsubr
            return
          </CharString>
          <CharString index="19">
            5 26 vhcurveto
            return
          </CharString>
          <CharString index="20">
            -29 14 -16 23 -2 vhcurveto
            -2 vlineto
            -23 -2 -14 -15 -29 vvcurveto
            return
          </CharString>
          <CharString index="21">
            vlineto
            -87 callsubr
            return
          </CharString>
          <CharString index="22">
            -80 callgsubr
            -135 -105 callgsubr
            return
          </CharString>
          <CharString index="23">
            -103 callgsubr
            -44 -105 callgsubr
            return
          </CharString>
          <CharString index="24">
            -26 -53 hvcurveto
            return
          </CharString>
          <CharString index="25">
            171 -94 callgsubr
            return
          </CharString>
          <CharString index="26">
            -76 callgsubr
            350 callsubr
            vlineto
            -14 callgsubr
            -53 26 -26 53 vhcurveto
            return
          </CharString>
          <CharString index="27">
            -26 vhcurveto
            -29 -105 callgsubr
            return
          </CharString>
          <CharString index="28">
            -97 callsubr
            -81 249 callsubr
            5 5 26 vhcurveto
            39 -95 callgsubr
            return
          </CharString>
          <CharString index="29">
            -98 callsubr
            2 callsubr
            return
          </CharString>
          <CharString index="30">
            -105 callgsubr
            302 -107 callsubr
            return
          </CharString>
          <CharString index="31">
            -99 callgsubr
            89 -104 callsubr
            return
          </CharString>
          <CharString index="32">
            -83 callgsubr
            144 -107 callsubr
            78 hlineto
            return
          </CharString>
          <CharString index="33">
            -54 callgsubr
            227 vlineto
            0 15 -39 36 -68 vhcurveto
            78 -147 rlineto
            -3 -5 -7 -1 -10 hhcurveto
            return
          </CharString>
          <CharString index="34">
            -61 callsubr
            142 -53 callsubr
            return
          </CharString>
          <CharString index="35">
            -34 -105 callgsubr
            return
          </CharString>
          <CharString index="36">
            235 -137 340 callgsubr
            -190 -36 callgsubr
            406 return
          </CharString>
          <CharString index="37">
            vlineto
            -104 callgsubr
            return
          </CharString>
          <CharString index="38">
            rmoveto
            -85 callsubr
            return
          </CharString>
          <CharString index="39">
            -105 callsubr
            -95 69 84 -55 callsubr
            47 return
          </CharString>
          <CharString index="40">
            -99 callsubr
            -33 hlineto
            -53 -23 -83 callsubr
            -56 52 45 -107 callsubr
            5 -95 callgsubr
            return
          </CharString>
          <CharString index="41">
            44 2 -4 -28 hvcurveto
            -126 -98 callgsubr
            return
          </CharString>
          <CharString index="42">
            -25 callsubr
            -69 -328 -18 callsubr
            return
          </CharString>
          <CharString index="43">
            rmoveto
            276 callgsubr
            return
          </CharString>
          <CharString index="44">
            -19 callgsubr
            -33 callgsubr
          </CharString>
          <CharString index="45">
            -75 -59 75 -563 69 10 callgsubr
            59 -75 return
          </CharString>
          <CharString index="46">
            32 -70 callsubr
            return
          </CharString>
          <CharString index="47">
            -103 callgsubr
            -72 callsubr
            return
          </CharString>
          <CharString index="48">
            -41 callsubr
            111 167 rlineto
            return
          </CharString>
          <CharString index="49">
            -18 callgsubr
            63 return
          </CharString>
          <CharString index="50">
            -44 callsubr
            18 12 4 11 7 hvcurveto
            return
          </CharString>
          <CharString index="51">
            -14 -11 -3 -6 -7 hvcurveto
            return
          </CharString>
          <CharString index="52">
            -107 callsubr
            44 -95 callgsubr
            -175 -45 callsubr
            return
          </CharString>
          <CharString index="53">
            -92 vlineto
            -53 26 -26 53 vhcurveto
            -61 callgsubr
            return
          </CharString>
          <CharString index="54">
            vlineto
            13 -3 9 11 callgsubr
            return
          </CharString>
          <CharString index="55">
            rmoveto
            -144 -221 -50 callgsubr
            return
          </CharString>
          <CharString index="56">
            -1 -6 0 -7 -7 vvcurveto
            return
          </CharString>
          <CharString index="57">
            -31 callsubr
            -426 242 callsubr
          </CharString>
          <CharString index="58">
            -563 -44 callgsubr
            return
          </CharString>
          <CharString index="59">
            -68 callgsubr
            -45 -105 callgsubr
            85 -69 165 callgsubr
            87 174 callgsubr
            -68 hlineto
            54 callsubr
            -88 -98 callsubr
            -173 -99 callgsubr
            68 226 callsubr
          </CharString>
          <CharString index="60">
            -83 callgsubr
            143 -107 callsubr
            78 hlineto
            return
          </CharString>
          <CharString index="61">
            24 -8 -20 9 -27 hhcurveto
            -40 -78 callsubr
            18 callsubr
            return
          </CharString>
          <CharString index="62">
            -98 callgsubr
            -77 return
          </CharString>
          <CharString index="63">
            -10 callgsubr
            172 vlineto
            26 5 5 26 vhcurveto
            42 59 -59 307 callsubr
            return
          </CharString>
          <CharString index="64">
            -31 callgsubr
            -59 callgsubr
            return
          </CharString>
          <CharString index="65">
            13 callsubr
            53 26 26 53 hvcurveto
            return
          </CharString>
          <CharString index="66">
            hlineto
            -108 -158 rlineto
            76 hlineto
            return
          </CharString>
          <CharString index="67">
            -48 callgsubr
            -80 return
          </CharString>
          <CharString index="68">
            -54 callgsubr
            185 143 callgsubr
            19 -46 30 -63 vhcurveto
            101 -213 151 callgsubr
            return
          </CharString>
          <CharString index="69">
            -33 callsubr
            111 273 callgsubr
            return
          </CharString>
          <CharString index="70">
            vlineto
            319 callsubr
            return
          </CharString>
          <CharString index="71">
            76 -104 callsubr
            return
          </CharString>
          <CharString index="72">
            -102 callgsubr
            -196 vlineto
            39 callgsubr
            return
          </CharString>
          <CharString index="73">
            -104 callgsubr
            212 vlineto
            13 -3 8 11 callgsubr
            return
          </CharString>
          <CharString index="74">
            23 2 14 16 29 vvcurveto
            147 -99 callsubr
            -83 -98 callsubr
            -96 69 85 -107 callsubr
            41 -95 callgsubr
            -121 vlineto
            -80 callgsubr
            -68 -59 68 hlineto
            26 8 -8 -26 hvcurveto
            -116 -98 callgsubr
            -41 -105 callgsubr
            85 -69 165 callgsubr
            83 240 callsubr
            106 -289 68 563 return
          </CharString>
          <CharString index="75">
            rmoveto
            -390 vlineto
            -27 -10 -9 -24 160 callgsubr
            -69 223 callsubr
            18 callsubr
            -33 69 485 vlineto
            return
          </CharString>
          <CharString index="76">
            94 callgsubr
            104 return
          </CharString>
          <CharString index="77">
            -8 -26 vhcurveto
            return
          </CharString>
          <CharString index="78">
            vlineto
            3 callsubr
            return
          </CharString>
          <CharString index="79">
            51 357 58 -357 rlineto
            35 -217 rmoveto
            69 hlineto
            -107 622 rlineto
            -109 hlineto
            -97 -622 rlineto
            69 hlineto
            23 158 rlineto
            126 hlineto
            endchar
          </CharString>
          <CharString index="80">
            67 -99 callsubr
            return
          </CharString>
          <CharString index="81">
            19 callgsubr
            -182 -86 callsubr
            return
          </CharString>
          <CharString index="82">
            -60 callsubr
            317 return
          </CharString>
          <CharString index="83">
            vlineto
            -262 -289 rlineto
            85 hlineto
            177 197 rlineto
            -147 69 -33 callgsubr
          </CharString>
          <CharString index="84">
            341 callsubr
            45 callsubr
            return
          </CharString>
          <CharString index="85">
            -62 callgsubr
            endchar
          </CharString>
          <CharString index="86">
            -67 callgsubr
            198 -61 callsubr
            91 -7 callgsubr
            -429 -395 59 callsubr
            return
          </CharString>
          <CharString index="87">
            -62 -99 callgsubr
            75 -95 callgsubr
            -66 -98 callgsubr
            -83 return
          </CharString>
          <CharString index="88">
            -61 callgsubr
            75 -69 -86 8 callgsubr
          </CharString>
          <CharString index="89">
            -57 callgsubr
            269 return
          </CharString>
          <CharString index="90">
            -105 callsubr
            -13 callsubr
            return
          </CharString>
          <CharString index="91">
            60 callgsubr
            136 callsubr
            16 -19 callgsubr
            return
          </CharString>
          <CharString index="92">
            -99 callgsubr
            82 return
          </CharString>
          <CharString index="93">
            -106 callgsubr
            -28 callgsubr
          </CharString>
          <CharString index="94">
            2 callsubr
            109 -104 callsubr
            125 -99 callsubr
            -62 -59 41 -95 callgsubr
            -103 -98 callgsubr
            -67 -77 callgsubr
            return
          </CharString>
          <CharString index="95">
            -103 callgsubr
            -62 -105 callgsubr
            532 -68 -543 -42 callsubr
            543 return
          </CharString>
          <CharString index="96">
            110 callgsubr
            -91 -98 callsubr
            return
          </CharString>
          <CharString index="97">
            -69 -367 hlineto
            -106 callgsubr
            return
          </CharString>
          <CharString index="98">
            -99 callgsubr
            55 62 -72 callsubr
            return
          </CharString>
          <CharString index="99">
            23 callgsubr
            227 vlineto
            26 5 5 26 vhcurveto
            endchar
          </CharString>
          <CharString index="100">
            71 -104 callsubr
            269 return
          </CharString>
          <CharString index="101">
            -92 vlineto
            -53 26 -26 53 vhcurveto
            -19 callsubr
          </CharString>
          <CharString index="102">
            rmoveto
            -80 callgsubr
            -40 -105 callgsubr
            365 105 vlineto
            return
          </CharString>
          <CharString index="103">
            -105 callgsubr
            158 -107 callsubr
            return
          </CharString>
          <CharString index="104">
            168 -93 callgsubr
            301 196 rmoveto
            return
          </CharString>
          <CharString index="105">
            116 callgsubr
            -40 -105 callgsubr
            227 -107 callsubr
            34 59 return
          </CharString>
          <CharString index="106">
            10 callgsubr
            vlineto
            return
          </CharString>
          <CharString index="107">
            7 callsubr
            117 return
          </CharString>
          <CharString index="108">
            -89 6 -46 -43 callsubr
            return
          </CharString>
          <CharString index="109">
            -327 -99 callgsubr
            return
          </CharString>
          <CharString index="110">
            26 8 8 26 vhcurveto
            return
          </CharString>
          <CharString index="111">
            -105 callgsubr
            153 56 vlineto
            -34 callsubr
            return
          </CharString>
          <CharString index="112">
            -97 callgsubr
            -235 vlineto
            -80 callgsubr
            return
          </CharString>
          <CharString index="113">
            -75 callgsubr
            340 callgsubr
            -249 202 callsubr
            29 16 14 23 2 hvcurveto
            2 hlineto
            -23 2 15 -14 29 hhcurveto
            99 210 callsubr
            return
          </CharString>
          <CharString index="114">
            -97 callsubr
            -107 -59 86 102 callsubr
            -29 hlineto
            -26 -5 5 26 hvcurveto
            88 -69 -99 -99 callgsubr
            71 -104 callsubr
            return
          </CharString>
          <CharString index="115">
            hlineto
            -73 callgsubr
            return
          </CharString>
          <CharString index="116">
            -106 callgsubr
            -36 callsubr
            return
          </CharString>
          <CharString index="117" raw="1">
            f70746ba 1d0b  
          </CharString>
          <CharString index="118">
            -69 callsubr
            174 -61 callsubr
            115 -7 callgsubr
            -426 121 callsubr
            570 280 rmoveto
            -413 -59 65 172 callsubr
            -99 -98 callgsubr
            -168 142 hlineto
            43 callgsubr
            158 -85 callgsubr
            vlineto
            endchar
          </CharString>
          <CharString index="119">
            -106 callgsubr
            116 298 callgsubr
            -69 -106 vlineto
            -26 126 callgsubr
            473 139 -189 312 callgsubr
            -59 65 -104 callsubr
            200 65 vlineto
            endchar
          </CharString>
          <CharString index="120">
            -99 callgsubr
            102 hlineto
            return
          </CharString>
          <CharString index="121">
            16 -63 callsubr
          </CharString>
          <CharString index="122">
            rmoveto
            85 127 rlineto
            -76 hlineto
            -53 -84 -52 84 rlineto
            -76 hlineto
            85 -127 rlineto
            return
          </CharString>
          <CharString index="123">
            -53 callgsubr
            -247 88 callgsubr
            -248 -318 -11 callgsubr
            690 426 rmoveto
            59 -898 -59 68 294 callsubr
            362 -29 callsubr
            71 -239 hlineto
            -106 callgsubr
            -101 callgsubr
          </CharString>
          <CharString index="124">
            -102 callgsubr
            -211 291 callsubr
            181 -69 -392 hlineto
            -106 callgsubr
            198 62 -177 -105 callgsubr
            138 311 callsubr
            227 vlineto
            13 -3 8 11 callgsubr
            return
          </CharString>
          <CharString index="125">
            40 hlineto
            27 20 9 24 8 hvcurveto
            return
          </CharString>
          <CharString index="126">
            -107 callsubr
            80 return
          </CharString>
          <CharString index="127">
            rmoveto
            137 72 59 -374 250 callsubr
            -327 vlineto
            -47 20 -25 41 -6 vhcurveto
            -75 -141 -15 callgsubr
            -75 143 rlineto
            34 8 17 25 43 vvcurveto
            -22 callsubr
          </CharString>
          <CharString index="128">
            -327 -57 callgsubr
            -62 callgsubr
            return
          </CharString>
          <CharString index="129">
            -209 -39 callsubr
            return
          </CharString>
          <CharString index="130">
            -211 rmoveto
            27 hlineto
            53 121 rlineto
            39 -80 vlineto
            return
          </CharString>
          <CharString index="131">
            274 callsubr
            -117 69 266 -69 -65 vlineto
            -80 callgsubr
            -41 -105 callgsubr
            197 -107 callsubr
            endchar
          </CharString>
          <CharString index="132">
            -99 callgsubr
            16 -19 callgsubr
            392 vlineto
            26 8 8 26 vhcurveto
            40 102 callsubr
            -34 -59 55 210 callsubr
            -63 259 callgsubr
          </CharString>
          <CharString index="133">
            vhcurveto
            40 -95 callgsubr
            return
          </CharString>
          <CharString index="134">
            221 551 rmoveto
            49 -21 22 -46 vhcurveto
            -57 hlineto
            -46 -21 -22 -49 hvcurveto
            -184 vlineto
            -49 21 -22 46 vhcurveto
            57 hlineto
            46 21 22 49 hvcurveto
            322 -112 rmoveto
            49 -21 22 -46 vhcurveto
            -57 hlineto
            -46 -21 -22 -49 hvcurveto
            -184 vlineto
            -49 21 -22 46 vhcurveto
            57 hlineto
            46 21 22 49 hvcurveto
            -378 305 rmoveto
            -25 -3 -5 -25 vhcurveto
            -23 hlineto
            -25 -3 5 25 hvcurveto
            166 vlineto
            25 3 5 25 vhcurveto
            23 hlineto
            25 3 -5 -25 hvcurveto
            322 -462 rmoveto
            -25 -3 -5 -25 vhcurveto
            -23 hlineto
            -25 -3 5 25 hvcurveto
            166 vlineto
            25 3 5 25 vhcurveto
            23 hlineto
            25 3 -5 -25 hvcurveto
            -95 376 rmoveto
            -272 -622 rlineto
            60 hlineto
            273 622 rlineto
            return
          </CharString>
          <CharString index="135">
            5 hlineto
            56 15 30 46 hvcurveto
            14 -62 -10 vlineto
            -21 -5 -4 -14 vhcurveto
            -24 -25 35 -42 hhcurveto
            -6 hlineto
            -55 -17 -29 -47 hvcurveto
            -14 62 return
          </CharString>
          <CharString index="136">
            -107 callgsubr
            197 -82 callgsubr
            return
          </CharString>
          <CharString index="137">
            -80 callgsubr
            -126 hlineto
            -21 callgsubr
            return
          </CharString>
          <CharString index="138">
            -59 callgsubr
            -7 callsubr
            return
          </CharString>
          <CharString index="139">
            vlineto
            25 callgsubr
          </CharString>
          <CharString index="140" raw="1">
            501d441d 34d0f7fe 6e0ad2f7 be0a0b
          </CharString>
          <CharString index="141">
            -59 235 -78 -101 vlineto
            -105 callsubr
            -62 -99 callgsubr
            81 -95 callgsubr
            -66 -98 callgsubr
            -78 53 -69 -190 69 78 99 185 callsubr
            53 -26 26 -53 vhcurveto
            -81 hlineto
            24 callgsubr
            return
          </CharString>
          <CharString index="142">
            -98 callgsubr
            -34 return
          </CharString>
          <CharString index="143">
            87 318 485 -81 callsubr
            return
          </CharString>
          <CharString index="144">
            vlineto
            42 callsubr
            return
          </CharString>
          <CharString index="145">
            -80 hlineto
            -75 callgsubr
            return
          </CharString>
          <CharString index="146">
            -20 callgsubr
            -100 return
          </CharString>
          <CharString index="147">
            -54 242 374 -68 callgsubr
            -62 -4 callsubr
            62 hlineto
            26 5 -5 -26 hvcurveto
            -442 vmoveto
            -103 callgsubr
            -62 -105 callgsubr
            162 34 callgsubr
            68 291 300 callgsubr
            290 callgsubr
            -183 vlineto
            -29 14 -17 23 -2 vhcurveto
            -23 -4 -14 -14 -29 vvcurveto
            -186 -42 callsubr
            186 vlineto
            29 -14 14 -23 4 vhcurveto
            23 2 14 17 29 vvcurveto
            endchar
          </CharString>
          <CharString index="148">
            3 callgsubr
            -63 -241 -32 callgsubr
            91 -36 133 callsubr
            151 -26 callgsubr
            return
          </CharString>
          <CharString index="149">
            -24 -8 -9 171 callsubr
            26 5 5 26 vhcurveto
            41 55 callsubr
            74 hlineto
            return
          </CharString>
          <CharString index="150">
            84 callgsubr
            271 -285 177 callgsubr
          </CharString>
          <CharString index="151">
            -107 callsubr
            78 hlineto
            -352 -174 -47 callsubr
            678 280 -52 callsubr
            -283 162 66 59 -368 -59 233 -162 -23 callsubr
            268 callgsubr
            return
          </CharString>
          <CharString index="152">
            -165 -76 callsubr
            185 return
          </CharString>
          <CharString index="153">
            hvcurveto
            -13 14 232 callsubr
            return
          </CharString>
          <CharString index="154">
            -95 callsubr
            -87 69 266 -69 -95 vlineto
            -80 callgsubr
            return
          </CharString>
          <CharString index="155">
            -107 callsubr
            78 hlineto
            -288 -205 -74 callsubr
            538 485 -52 callsubr
            341 callsubr
            -51 vlineto
            -12 callgsubr
            return
          </CharString>
          <CharString index="156">
            rmoveto
            70 callgsubr
            -142 vlineto
            -56 callsubr
            87 426 vlineto
            -569 -426 -11 callgsubr
            673 485 rmoveto
            -881 105 callsubr
            71 74 callgsubr
          </CharString>
          <CharString index="157">
            rmoveto
            137 111 59 -439 314 callsubr
            vlineto
            -105 callsubr
            -44 -86 callsubr
            -188 -99 callgsubr
            184 59 -163 -105 callgsubr
            165 -107 callsubr
            123 hlineto
            26 7 -5 -26 hvcurveto
            -19 -74 vlineto
            -53 -21 -83 callsubr
            -28 64 20 -107 callsubr
            53 -72 61 158 hlineto
            -97 callsubr
            -138 -105 callgsubr
            19 -107 callsubr
            endchar
          </CharString>
          <CharString index="158">
            -106 callgsubr
            86 -104 callsubr
            115 -69 -104 -86 callgsubr
            178 return
          </CharString>
          <CharString index="159">
            46 callgsubr
            -40 -105 callgsubr
            227 -107 callsubr
            34 59 return
          </CharString>
          <CharString index="160">
            -105 callsubr
            -465 136 callgsubr
            235 -119 -59 50 -165 18 callgsubr
            -84 return
          </CharString>
          <CharString index="161">
            -107 callgsubr
            151 135 callgsubr
            -85 69 96 -99 callsubr
            return
          </CharString>
          <CharString index="162">
            80 callsubr
            156 callgsubr
            return
          </CharString>
          <CharString index="163">
            rmoveto
            198 220 rlineto
            92 vlineto
            -283 -312 rlineto
            80 268 274 callgsubr
            69 59 rmoveto
            217 callgsubr
            -99 vlineto
            -53 -26 -26 -53 hvcurveto
            230 callgsubr
            134 59 vlineto
            endchar
          </CharString>
          <CharString index="164">
            rmoveto
            93 -95 callgsubr
            -182 299 callsubr
            150 -319 rmoveto
            74 hlineto
            -94 261 rlineto
            42 5 20 26 47 vvcurveto
            204 -99 callsubr
            -181 -622 68 260 59 hlineto
            endchar
          </CharString>
          <CharString index="165">
            -68 callgsubr
            199 callsubr
            227 -107 callsubr
            61 -95 callgsubr
            return
          </CharString>
          <CharString index="166">
            -30 callgsubr
            167 26 callgsubr
            return
          </CharString>
          <CharString index="167">
            -107 callsubr
            50 -95 callgsubr
            return
          </CharString>
          <CharString index="168">
            vlineto
            -73 callgsubr
            151 -26 callgsubr
            return
          </CharString>
          <CharString index="169">
            45 callgsubr
            87 -239 vlineto
            return
          </CharString>
          <CharString index="170">
            -67 callgsubr
            176 -61 callsubr
            113 -7 callgsubr
            return
          </CharString>
          <CharString index="171">
            81 callsubr
            105 268 callsubr
            return
          </CharString>
          <CharString index="172">
            134 59 -134 210 164 59 -233 -622 240 59 return
          </CharString>
          <CharString index="173">
            -165 vlineto
            -53 26 -26 53 vhcurveto
            67 callgsubr
          </CharString>
          <CharString index="174">
            -10 callgsubr
            186 -37 callsubr
            -208 205 callgsubr
            return
          </CharString>
          <CharString index="175">
            -317 vlineto
            -65 callsubr
            return
          </CharString>
          <CharString index="176">
            69 390 vlineto
            27 10 9 24 26 callsubr
            -395 69 return
          </CharString>
          <CharString index="177">
            -395 -30 callgsubr
            return
          </CharString>
          <CharString index="178">
            66 callgsubr
            -345 rmoveto
            -26 -5 -5 -26 vhcurveto
            -47 hlineto
            -26 -5 5 26 hvcurveto
            124 244 callsubr
            -146 -76 callsubr
            166 113 -134 -24 callsubr
          </CharString>
          <CharString index="179">
            hlineto
            -51 callsubr
            107 callgsubr
          </CharString>
          <CharString index="180">
            -106 callgsubr
            234 62 -213 4 callsubr
            return
          </CharString>
          <CharString index="181">
            148 -197 hlineto
            162 callsubr
            78 callsubr
            return
          </CharString>
          <CharString index="182">
            hlineto
            -106 callgsubr
            63 -92 callsubr
          </CharString>
          <CharString index="183">
            -74 -86 callsubr
            return
          </CharString>
          <CharString index="184">
            73 callsubr
            220 -346 hlineto
            -57 callsubr
            -134 65 -33 callgsubr
          </CharString>
          <CharString index="185">
            -69 22 callsubr
            return
          </CharString>
          <CharString index="186">
            -41 callsubr
            116 175 rlineto
            return
          </CharString>
          <CharString index="187">
            59 -204 81 callgsubr
            return
          </CharString>
          <CharString index="188">
            -79 callsubr
            -131 -283 162 66 59 -368 -59 233 -162 -23 callsubr
            268 callgsubr
            45 callsubr
            return
          </CharString>
          <CharString index="189">
            168 -47 callsubr
            return
          </CharString>
          <CharString index="190">
            rmoveto
            -68 callsubr
            return
          </CharString>
          <CharString index="191">
            -59 415 65 callgsubr
            -194 hlineto
            -53 -26 -26 -53 hvcurveto
            137 callgsubr
            return
          </CharString>
          <CharString index="192">
            -78 70 callgsubr
            return
          </CharString>
          <CharString index="193">
            -59 413 -2 callsubr
            -229 hlineto
            -53 -26 -26 -53 hvcurveto
            -327 167 callsubr
            return
          </CharString>
          <CharString index="194">
            179 callsubr
            77 -26 callgsubr
            return
          </CharString>
          <CharString index="195">
            -98 callsubr
            -37 69 26 -107 callsubr
            return
          </CharString>
          <CharString index="196">
            -105 callgsubr
            163 vlineto
            return
          </CharString>
          <CharString index="197">
            rmoveto
            -26 -5 -5 -26 vhcurveto
            -29 hlineto
            -26 -5 5 26 hvcurveto
            143 244 callgsubr
            301 callsubr
            88 -187 -24 callsubr
          </CharString>
          <CharString index="198">
            224 callgsubr
            -105 callgsubr
            return
          </CharString>
          <CharString index="199">
            344 callgsubr
            140 vlineto
            48 -23 30 -56 vhcurveto
            -63 hlineto
            -56 -23 -30 -48 hvcurveto
            -182 vlineto
            -47 22 -30 54 -1 vhcurveto
            -139 -136 rlineto
            85 hlineto
            141 136 rlineto
            return
          </CharString>
          <CharString index="200">
            -54 callgsubr
            157 19 callsubr
            -188 hlineto
            -103 callgsubr
            return
          </CharString>
          <CharString index="201">
            -99 callgsubr
            110 59 -89 134 callsubr
            return
          </CharString>
          <CharString index="202">
            -59 65 -406 hlineto
            9 callsubr
            406 return
          </CharString>
          <CharString index="203">
            -406 hlineto
            -106 callgsubr
            return
          </CharString>
          <CharString index="204">
            -59 521 65 callgsubr
            51 callgsubr
            195 return
          </CharString>
          <CharString index="205">
            73 callgsubr
            -67 -64 vlineto
            -105 callsubr
            -37 69 26 345 callgsubr
            -99 69 404 -69 -95 hlineto
            107 callsubr
          </CharString>
          <CharString index="206">
            211 callgsubr
            -46 vlineto
            199 callgsubr
            -35 return
          </CharString>
          <CharString index="207">
            26 26 callsubr
            return
          </CharString>
          <CharString index="208">
            -206 -57 callgsubr
            -22 callsubr
          </CharString>
          <CharString index="209">
            -95 callgsubr
            -227 -98 callgsubr
            return
          </CharString>
          <CharString index="210">
            -99 callgsubr
            52 return
          </CharString>
          <CharString index="211">
            -105 callgsubr
            121 -107 callsubr
            68 59 -68 -105 callgsubr
            122 vlineto
            26 5 return
          </CharString>
          <CharString index="212">
            56 callgsubr
            392 -29 callsubr
            return
          </CharString>
          <CharString index="213">
            103 callsubr
            hlineto
            return
          </CharString>
          <CharString index="214">
            85 callgsubr
            endchar
          </CharString>
          <CharString index="215">
            139 callsubr
            -53 26 -26 53 vhcurveto
            return
          </CharString>
          <CharString index="216">
            -57 callgsubr
            239 return
          </CharString>
          <CharString index="217">
            -99 callgsubr
            36 return
          </CharString>
          <CharString index="218">
            rmoveto
            -426 -59 282 -362 hlineto
            -80 callgsubr
            -60 -105 callgsubr
            197 vlineto
            286 callgsubr
            -213 110 callsubr
            -63 callsubr
          </CharString>
          <CharString index="219">
            hlineto
            -25 callsubr
            -69 -160 vlineto
            1 callsubr
            113 -26 callgsubr
            -36 callsubr
            return
          </CharString>
          <CharString index="220">
            141 callsubr
            -40 -105 callgsubr
            return
          </CharString>
          <CharString index="221">
            -249 32 callsubr
          </CharString>
          <CharString index="222">
            vlineto
            -90 callgsubr
            return
          </CharString>
          <CharString index="223">
            -5 callsubr
            208 hmoveto
            59 -450 212 callsubr
            105 59 -107 259 callgsubr
          </CharString>
          <CharString index="224">
            -392 hlineto
            -26 -8 -8 171 callsubr
            26 5 4 27 1 vhcurveto
            40 59 return
          </CharString>
          <CharString index="225">
            198 callsubr
            -258 vlineto
            -105 callsubr
            return
          </CharString>
          <CharString index="226">
            -59 211 hlineto
            261 callsubr
            113 59 -92 248 callsubr
            16 27 vlineto
            33 11 -21 -31 17 hvcurveto
            29 -53 -157 -165 rlineto
            83 hlineto
            132 137 rlineto
            return
          </CharString>
          <CharString index="227">
            -102 callgsubr
            -275 -98 callgsubr
            -54 167 hlineto
            -97 callsubr
            -70 -98 callsubr
            -147 -99 callgsubr
            80 -138 69 138 75 -104 callsubr
            291 vlineto
            13 -3 8 11 callgsubr
            97 -396 242 callsubr
          </CharString>
          <CharString index="228">
            -395 -47 callsubr
            return
          </CharString>
          <CharString index="229">
            -106 callgsubr
            118 callsubr
            return
          </CharString>
          <CharString index="230">
            rmoveto
            -56 callsubr
            117 return
          </CharString>
          <CharString index="231">
            rmoveto
            -426 -59 282 117 callsubr
            -204 -59 71 hlineto
            -5 -5 -3 -8 -13 vvcurveto
            -243 vlineto
            -53 26 -26 53 vhcurveto
            83 -92 callsubr
          </CharString>
          <CharString index="232">
            -12 callgsubr
            102 hlineto
            25 return
          </CharString>
          <CharString index="233">
            -107 callgsubr
            178 return
          </CharString>
          <CharString index="234">
            70 -69 -59 vlineto
            153 callsubr
            return
          </CharString>
          <CharString index="235">
            -74 hlineto
            22 -52 25 -58 15 -42 21 -39 rlinecurve
            -4 hlineto
            -25 42 -29 39 -59 64 -42 46 rcurveline
            -91 hlineto
            return
          </CharString>
          <CharString index="236">
            -53 callgsubr
            208 hmoveto
            59 -450 155 callgsubr
            105 59 -107 259 callgsubr
          </CharString>
          <CharString index="237">
            -53 311 543 300 callgsubr
            -103 146 callgsubr
            103 -104 callsubr
            -69 11 -68 callgsubr
            -61 318 callgsubr
            61 226 callsubr
          </CharString>
          <CharString index="238">
            rmoveto
            -258 vlineto
            -96 callsubr
            -100 -269 rmoveto
            122 callsubr
            -55 216 rmoveto
            -59 392 59 vlineto
            endchar
          </CharString>
          <CharString index="239">
            hlineto
            138 callgsubr
            return
          </CharString>
          <CharString index="240">
            -86 callsubr
            -138 -99 callgsubr
            return
          </CharString>
          <CharString index="241">
            -105 callgsubr
            36 -107 callsubr
            return
          </CharString>
          <CharString index="242">
            vlineto
            129 callgsubr
            return
          </CharString>
          <CharString index="243">
            -219 -99 callgsubr
            return
          </CharString>
          <CharString index="244">
            rmoveto
            165 169 rlineto
            83 vlineto
            -254 -252 rlineto
            90 258 rmoveto
            -60 callsubr
            355 96 vlineto
            -230 59 rmoveto
            -59 65 -366 -57 callgsubr
            366 95 59 vlineto
            endchar
          </CharString>
          <CharString index="245">
            -24 -8 -9 -94 callsubr
            -59 callgsubr
            54 hlineto
            30 18 7 15 10 hvcurveto
            -15 13 21 -7 28 hhcurveto
            -7 callsubr
            return
          </CharString>
          <CharString index="246">
            -59 75 -236 hlineto
            -87 callsubr
            -153 vlineto
            return
          </CharString>
          <CharString index="247">
            166 callsubr
            75 return
          </CharString>
          <CharString index="248">
            95 callgsubr
            -235 vlineto
            -80 callgsubr
            return
          </CharString>
          <CharString index="249">
            -78 -19 vlineto
            -105 callsubr
            -327 vlineto
            return
          </CharString>
          <CharString index="250">
            144 59 rmoveto
            return
          </CharString>
          <CharString index="251">
            vlineto
            -66 callsubr
            return
          </CharString>
          <CharString index="252">
            -60 callsubr
            287 return
          </CharString>
          <CharString index="253">
            142 vlineto
            -9 callgsubr
            return
          </CharString>
          <CharString index="254">
            -67 343 callgsubr
            82 59 -394 320 callsubr
            -43 17 -26 36 -7 vhcurveto
            -54 150 callsubr
            21 vlineto
            14 11 3 6 7 hvcurveto
            return
          </CharString>
          <CharString index="255">
            -105 callsubr
            188 callsubr
            return
          </CharString>
          <CharString index="256">
            125 callsubr
            16 5 14 8 hvcurveto
            -13 14 19 -6 26 hhcurveto
            -7 callsubr
            return
          </CharString>
          <CharString index="257">
            vlineto
            -21 -4 -5 -22 vhcurveto
            -18 -50 48 hlineto
            44 21 24 43 hvcurveto
            60 return
          </CharString>
          <CharString index="258">
            314 callsubr
            vlineto
            -105 callsubr
            76 callsubr
            -248 -99 callgsubr
            184 59 -163 -105 callgsubr
            225 -107 callsubr
            return
          </CharString>
          <CharString index="259">
            336 callgsubr
            224 80 59 -80 221 107 270 callgsubr
            90 rmoveto
            -280 -50 -59 50 -283 176 callgsubr
          </CharString>
          <CharString index="260">
            -103 callgsubr
            -82 123 callgsubr
            return
          </CharString>
          <CharString index="261">
            rmoveto
            24 3 8 26 vhcurveto
            26 hlineto
            26 3 -8 -24 hvcurveto
            -155 vlineto
            -24 -3 -30 callsubr
            -26 hlineto
            -26 -3 8 24 hvcurveto
            return
          </CharString>
          <CharString index="262">
            -105 callsubr
            -464 -99 callgsubr
            return
          </CharString>
          <CharString index="263">
            -59 166 callgsubr
            return
          </CharString>
          <CharString index="264">
            -107 callsubr
            78 hlineto
            326 280 -52 callsubr
            return
          </CharString>
          <CharString index="265">
            -48 45 157 221 callgsubr
            269 137 59 -206 -317 vlineto
            -25 callsubr
            -69 vlineto
            -65 78 rmoveto
            436 59 -436 hlineto
            return
          </CharString>
          <CharString index="266">
            -220 -237 rlineto
            82 hlineto
            138 153 rlineto
            -103 69 -33 callgsubr
          </CharString>
          <CharString index="267">
            -59 211 hlineto
            261 callsubr
            167 59 -146 -105 callgsubr
            195 218 vlineto
            -157 -167 rlineto
            76 hlineto
            return
          </CharString>
          <CharString index="268">
            145 callsubr
            -69 return
          </CharString>
          <CharString index="269">
            -83 8 -58 211 callsubr
            53 -32 68 vhcurveto
            return
          </CharString>
          <CharString index="270">
            44 -9 64 0 vhcurveto
            0 20 -46 26 -42 vhcurveto
            return
          </CharString>
          <CharString index="271">
            -131 174 callsubr
            return
          </CharString>
          <CharString index="272">
            -107 callsubr
            32 return
          </CharString>
          <CharString index="273">
            -563 68 563 return
          </CharString>
          <CharString index="274">
            94 callgsubr
            75 hlineto
            128 callgsubr
            return
          </CharString>
          <CharString index="275">
            -106 callgsubr
            -71 callgsubr
            -87 69 392 -29 callsubr
            72 260 callgsubr
            return
          </CharString>
          <CharString index="276">
            529 52 callgsubr
            -334 -395 -93 callgsubr
            return
          </CharString>
          <CharString index="277">
            38 callsubr
            -72 hlineto
            return
          </CharString>
          <CharString index="278">
            -26 vhcurveto
            -60 -105 callgsubr
            227 vlineto
            return
          </CharString>
          <CharString index="279">
            hlineto
            44 2 -4 -28 hvcurveto
            return
          </CharString>
          <CharString index="280">
            rmoveto
            -465 vlineto
            -124 465 rlineto
            -80 -622 63 482 hlineto
            129 -482 rlineto
            75 622 hlineto
            return
          </CharString>
          <CharString index="281">
            -99 -98 callsubr
            return
          </CharString>
          <CharString index="282">
            hlineto
            7 callsubr
            return
          </CharString>
          <CharString index="283">
            304 callsubr
            76 59 vlineto
            endchar
          </CharString>
          <CharString index="284">
            -78 -89 vlineto
            148 callsubr
            return
          </CharString>
          <CharString index="285">
            -376 -99 callgsubr
            89 callgsubr
            return
          </CharString>
          <CharString index="286">
            -59 75 96 callsubr
            return
          </CharString>
          <CharString index="287">
            -36 callsubr
            406 return
          </CharString>
          <CharString index="288">
            26 5 4 26 vhcurveto
            34 return
          </CharString>
          <CharString index="289">
            -104 callsubr
            46 -99 callsubr
            -91 -59 70 342 callsubr
            220 callsubr
            163 -107 callsubr
            return
          </CharString>
          <CharString index="290">
            -105 10 485 rmoveto
            93 -485 rlineto
            45 hlineto
            -12 -51 rlineto
            -25 -6 -18 -6 -26 hhcurveto
            -33 -59 54 hlineto
            53 32 27 52 10 hvcurveto
            97 547 rlineto
            -69 hlineto
            -73 -437 -78 437 rlineto
            return
          </CharString>
          <CharString index="291">
            281 callgsubr
            -75 -98 callgsubr
            return
          </CharString>
          <CharString index="292">
            -104 callsubr
            88 vlineto
            return
          </CharString>
          <CharString index="293">
            -105 callgsubr
            40 return
          </CharString>
          <CharString index="294">
            -73 callsubr
            97 hlineto
            143 callsubr
            -488 295 callsubr
            return
          </CharString>
          <CharString index="295">
            -59 callgsubr
            241 callgsubr
            return
          </CharString>
          <CharString index="296">
            vlineto
            -102 callgsubr
            return
          </CharString>
          <CharString index="297">
            793 rmoveto
            64 67 -64 hlineto
            75 -159 rmoveto
            -104 callgsubr
            33 -59 -27 -98 callgsubr
            -62 -105 callgsubr
            27 -59 -33 -99 callgsubr
            return
          </CharString>
          <CharString index="298">
            -86 219 292 callgsubr
            -40 hlineto
            -24 -10 9 27 hvcurveto
            295 vlineto
            27 10 9 24 26 callsubr
            -50 90 rmoveto
            235 callgsubr
            return
          </CharString>
          <CharString index="299">
            307 callsubr
            18 12 4 11 7 hvcurveto
            return
          </CharString>
          <CharString index="300">
            -104 callsubr
            55 -69 -44 vlineto
            91 callsubr
            return
          </CharString>
          <CharString index="301">
            -59 172 hlineto
            -35 callsubr
            -69 -392 hlineto
            -106 callgsubr
            130 62 -109 -105 callgsubr
            return
          </CharString>
          <CharString index="302">
            -99 callgsubr
            99 -92 callsubr
          </CharString>
          <CharString index="303">
            -67 292 426 73 callgsubr
            return
          </CharString>
          <CharString index="304">
            -89 325 186 rmoveto
            -53 118 -66 -118 -131 hlineto
            161 436 rlineto
            -67 hlineto
            -164 -442 rlineto
            -53 201 -127 66 127 53 vlineto
            endchar
          </CharString>
          <CharString index="305">
            -7 callsubr
            108 59 return
          </CharString>
          <CharString index="306">
            -61 -105 callgsubr
            return
          </CharString>
          <CharString index="307">
            426 rmoveto
            137 return
          </CharString>
          <CharString index="308">
            -59 269 -78 -125 224 callsubr
            return
          </CharString>
          <CharString index="309">
            -99 callgsubr
            101 hlineto
            return
          </CharString>
          <CharString index="310">
            62 hlineto
            98 127 rlineto
            -82 hlineto
            return
          </CharString>
          <CharString index="311">
            283 callsubr
            -93 callsubr
          </CharString>
          <CharString index="312">
            210 callgsubr
            -76 140 rlineto
            76 59 return
          </CharString>
          <CharString index="313">
            -27 -10 -9 -24 vhcurveto
            return
          </CharString>
          <CharString index="314">
            -67 callgsubr
            174 -61 callsubr
            115 -7 callgsubr
            return
          </CharString>
          <CharString index="315">
            193 callsubr
            129 331 callsubr
            -51 callgsubr
          </CharString>
          <CharString index="316">
            -30 272 699 rmoveto
            -264 -835 rlineto
            68 hlineto
            264 835 rlineto
            endchar
          </CharString>
          <CharString index="317">
            -104 callsubr
            249 -99 callsubr
            return
          </CharString>
          <CharString index="318">
            0 vhcurveto
            0 -20 return
          </CharString>
          <CharString index="319">
            -59 68 178 callsubr
            111 167 rlineto
            -117 69 392 -29 callsubr
            return
          </CharString>
          <CharString index="320">
            rmoveto
            77 hlineto
            -124 155 124 157 rlineto
            -77 hlineto
            -121 -156 rlineto
            return
          </CharString>
          <CharString index="321">
            rmoveto
            -121 156 rlineto
            -77 hlineto
            124 -157 -124 -155 rlineto
            77 hlineto
            return
          </CharString>
          <CharString index="322">
            -51 callsubr
            66 callsubr
          </CharString>
          <CharString index="323">
            299 callgsubr
            86 240 callsubr
            -69 -121 -86 callgsubr
            return
          </CharString>
          <CharString index="324">
            -25 100 callgsubr
            -78 hlineto
            315 callgsubr
            return
          </CharString>
          <CharString index="325">
            140 59 -54 callgsubr
            306 97 callgsubr
            24 10 -9 -27 hvcurveto
            -296 235 callsubr
            34 return
          </CharString>
          <CharString index="326">
            rmoveto
            88 84 -88 hlineto
            176 -84 rmoveto
            88 84 -88 hlineto
            return
          </CharString>
          <CharString index="327">
            299 callsubr
            -26 -5 5 26 hvcurveto
            return
          </CharString>
          <CharString index="328">
            hlineto
            26 17 5 11 10 hvcurveto
            -11 13 19 -5 24 hhcurveto
            return
          </CharString>
          <CharString index="329">
            -188 -68 callgsubr
            -77 return
          </CharString>
          <CharString index="330">
            -406 -99 callgsubr
            return
          </CharString>
          <CharString index="331">
            -42 callgsubr
            104 return
          </CharString>
          <CharString index="332">
            rmoveto
            76 hlineto
            52 84 53 -84 rlineto
            76 hlineto
            -85 127 rlineto
            -87 hlineto
            endchar
          </CharString>
          <CharString index="333">
            -95 callgsubr
            endchar
          </CharString>
          <CharString index="334">
            46 hlineto
            99 callsubr
            return
          </CharString>
          <CharString index="335">
            rmoveto
            59 -69 79 -69 -79 -44 -59 44 299 callgsubr
            59 64 -38 -105 callgsubr
            331 vlineto
            endchar
          </CharString>
          <CharString index="336">
            653 rmoveto
            63 66 -63 hlineto
            -20 94 rmoveto
            -53 -26 -25 -53 hvcurveto
            -136 69 125 vlineto
            187 callgsubr
            hlineto
            endchar
          </CharString>
          <CharString index="337">
            rmoveto
            -236 -58 236 hlineto
            return
          </CharString>
          <CharString index="338">
            -55 -105 callgsubr
            return
          </CharString>
          <CharString index="339">
            19 -6 26 hhcurveto
            return
          </CharString>
          <CharString index="340">
            -104 callsubr
            63 -69 -52 -98 callgsubr
            -81 -105 callgsubr
            113 -107 callsubr
            return
          </CharString>
          <CharString index="341">
            59 -54 callgsubr
            125 -107 callsubr
            28 -95 callgsubr
            -156 vlineto
            456 563 rmoveto
            return
          </CharString>
          <CharString index="342">
            vlineto
            206 callsubr
            return
          </CharString>
          <CharString index="343">
            309 callgsubr
            197 -107 callsubr
            34 59 -55 hlineto
            -53 -26 return
          </CharString>
          <CharString index="344">
            -106 callgsubr
            111 -63 callsubr
          </CharString>
          <CharString index="345">
            rmoveto
            -83 -365 -88 365 rlineto
            -69 hlineto
            123 -432 rlineto
            -190 68 190 vlineto
            118 432 rlineto
            endchar
          </CharString>
          <CharString index="346">
            -76 hlineto
            100 -130 rlineto
            76 hlineto
            endchar
          </CharString>
          <CharString index="347">
            -104 callsubr
            132 return
          </CharString>
          <CharString index="348">
            -114 -105 callgsubr
            return
          </CharString>
          <CharString index="349">
            69 10 callgsubr
            hlineto
            endchar
          </CharString>
          <CharString index="350">
            rmoveto
            137 72 59 -421 -59 280 -78 -126 vlineto
            324 callgsubr
            return
          </CharString>
          <CharString index="351">
            -107 callsubr
            78 hlineto
            326 249 rmoveto
            -559 332 callgsubr
            return
          </CharString>
          <CharString index="352">
            33 13 -11 -33 16 hvcurveto
            68 -137 296 callgsubr
            return
          </CharString>
          <CharString index="353">
            69 174 vlineto
            -24 8 20 -9 27 hhcurveto
            40 -104 callsubr
            327 -51 callgsubr
          </CharString>
          <CharString index="354">
            27 callgsubr
            219 -99 callsubr
            return
          </CharString>
          <CharString index="355">
            -105 callgsubr
            195 90 callgsubr
            return
          </CharString>
          <CharString index="356">
            -98 callsubr
            -67 69 56 vlineto
            26 return
          </CharString>
          <CharString index="357">
            282 callgsubr
            vlineto
            -105 callsubr
            return
          </CharString>
          <CharString index="358">
            -107 callsubr
            104 return
          </CharString>
          <CharString index="359">
            hlineto
            19 callgsubr
            return
          </CharString>
          <CharString index="360">
            hlineto
            -26 -6 -100 callgsubr
            return
          </CharString>
          <CharString index="361">
            -59 140 93 callgsubr
            return
          </CharString>
          <CharString index="362">
            -31 rmoveto
            -69 -485 69 350 hlineto
            51 19 24 44 vhcurveto
            30 60 -21 hlineto
            -39 -24 -28 -28 -9 hvcurveto
            endchar
          </CharString>
          <CharString index="363">
            -107 callsubr
            137 137 75 59 -387 350 callgsubr
            -89 -98 callsubr
            return
          </CharString>
          <CharString index="364">
            -69 -95 vlineto
            107 callsubr
          </CharString>
          <CharString index="365">
            -26 -8 -8 -26 160 callgsubr
            return
          </CharString>
          <CharString index="366">
            264 callsubr
            102 return
          </CharString>
          <CharString index="367">
            -99 vlineto
            -37 callgsubr
            return
          </CharString>
          <CharString index="368">
            -70 callgsubr
            102 -10 callsubr
            return
          </CharString>
          <CharString index="369">
            -249 195 callsubr
          </CharString>
          <CharString index="370">
            hmoveto
            276 callgsubr
            return
          </CharString>
          <CharString index="371">
            -107 callgsubr
            117 -73 callsubr
            return
          </CharString>
          <CharString index="372">
            -83 callgsubr
            124 -107 callsubr
            78 hlineto
            return
          </CharString>
          <CharString index="373">
            763 rmoveto
            -55 hlineto
            -53 -26 -25 -53 hvcurveto
            -86 69 75 vlineto
            181 callsubr
            hlineto
            endchar
          </CharString>
          <CharString index="374">
            vlineto
            -60 callsubr
            return
          </CharString>
          <CharString index="375">
            -185 -99 callgsubr
            return
          </CharString>
          <CharString index="376">
            -347 hlineto
            -106 callgsubr
            return
          </CharString>
          <CharString index="377" raw="1">
            230af7e4 0b  
          </CharString>
          <CharString index="378">
            -105 callgsubr
            39 return
          </CharString>
          <CharString index="379">
            -49 -99 callgsubr
            return
          </CharString>
          <CharString index="380">
            rmoveto
            -88 -84 88 hlineto
            return
          </CharString>
          <CharString index="381">
            136 callsubr
            17 -59 callsubr
            return
          </CharString>
          <CharString index="382">
            -105 callsubr
            -179 -36 callgsubr
            336 return
          </CharString>
          <CharString index="383">
            45 callsubr
            113 vlineto
            endchar
          </CharString>
          <CharString index="384">
            rmoveto
            -84 88 84 vlineto
            endchar
          </CharString>
          <CharString index="385">
            278 21 callgsubr
            return
          </CharString>
          <CharString index="386">
            rmoveto
            -74 hlineto
            -110 -229 110 -256 rlineto
            74 hlineto
            -113 256 rlineto
            endchar
          </CharString>
          <CharString index="387">
            -68 callgsubr
            -77 111 return
          </CharString>
          <CharString index="388">
            13 20 -7 28 hhcurveto
            return
          </CharString>
          <CharString index="389">
            -27 callgsubr
            102 hlineto
            return
          </CharString>
          <CharString index="390">
            13 callsubr
            25 15 5 14 9 46 callsubr
            return
          </CharString>
          <CharString index="391">
            -74 hlineto
            -131 -314 129 -308 rlineto
            74 hlineto
            -132 308 rlineto
            endchar
          </CharString>
          <CharString index="392">
            hlineto
            -41 72 rlineto
            45 -26 -23 16 -56 hhcurveto
            -27 98 hlineto
            13 -3 8 11 callgsubr
            return
          </CharString>
          <CharString index="393">
            rmoveto
            167 75 59 -580 -59 436 -108 -89 vlineto
            -105 callsubr
            return
          </CharString>
          <CharString index="394">
            68 -96 36 -50 31 -38 22 -20 rlinecurve
            69 hlineto
            return
          </CharString>
          <CharString index="395">
            327 callsubr
            329 hlineto
            return
          </CharString>
          <CharString index="396">
            rmoveto
            236 58 -236 hlineto
            endchar
          </CharString>
          <CharString index="397">
            -40 -98 callgsubr
            return
          </CharString>
          <CharString index="398">
            -98 callgsubr
            -35 return
          </CharString>
          <CharString index="399">
            -105 callgsubr
            95 return
          </CharString>
          <CharString index="400">
            rmoveto
            137 90 59 return
          </CharString>
          <CharString index="401">
            223 callsubr
            -71 callgsubr
            -87 69 return
          </CharString>
          <CharString index="402">
            -59 140 -40 callsubr
            return
          </CharString>
          <CharString index="403">
            rmoveto
            -82 hlineto
            98 -127 rlineto
            62 hlineto
            endchar
          </CharString>
          <CharString index="404">
            123 -107 callsubr
            return
          </CharString>
          <CharString index="405" raw="1">
            fbd10621 1d0b  
          </CharString>
          <CharString index="406">
            -98 callgsubr
            -93 hlineto
            return
          </CharString>
          <CharString index="407">
            -189 rmoveto
            10 12 2 20 28 vvcurveto
            103 vlineto
            13 -3 8 11 callgsubr
            return
          </CharString>
          <CharString index="408">
            -165 -99 callgsubr
            71 -104 callsubr
            185 return
          </CharString>
          <CharString index="409">
            -78 38 callsubr
            return
          </CharString>
          <CharString index="410">
            hlineto
            68 -96 29 -41 26 -32 21 -22 rlinecurve
            return
          </CharString>
          <CharString index="411">
            -622 68 563 return
          </CharString>
          <CharString index="412">
            563 rmoveto
            59 return
          </CharString>
          <CharString index="413">
            290 callsubr
            -68 186 callsubr
            -64 return
          </CharString>
          <CharString index="414">
            -98 callsubr
            -194 106 callsubr
            return
          </CharString>
          <CharString index="415">
            171 rmoveto
            -80 callgsubr
            -40 -105 callgsubr
            return
          </CharString>
          <CharString index="416">
            hlineto
            24 callgsubr
            endchar
          </CharString>
          <CharString index="417">
            -142 hlineto
            -56 callsubr
            return
          </CharString>
          <CharString index="418">
            56 -70 callsubr
            return
          </CharString>
          <CharString index="419">
            426 293 callsubr
            return
          </CharString>
          <CharString index="420">
            rmoveto
            -106 callgsubr
            return
          </CharString>
          <CharString index="421">
            -59 259 -78 -105 return
          </CharString>
          <CharString index="422">
            -3 callgsubr
            2 callsubr
            return
          </CharString>
          <CharString index="423">
            hlineto
            -56 -23 -30 -48 hvcurveto
            -84 vlineto
            -28 2 -20 10 -12 vhcurveto
            return
          </CharString>
          <CharString index="424">
            -105 callgsubr
            142 -107 callsubr
            return
          </CharString>
          <CharString index="425">
            -105 callgsubr
            297 callsubr
            return
          </CharString>
          <CharString index="426">
            -106 callsubr
            42 59 -59 -98 callsubr
            return
          </CharString>
          <CharString index="427">
            350 callgsubr
            -89 vlineto
            -105 callsubr
            -249 vlineto
            return
          </CharString>
          <CharString index="428">
            -175 -245 rlineto
            77 hlineto
            145 203 rlineto
            23 return
          </CharString>
          <CharString index="429">
            hlineto
            25 16 5 14 8 46 callsubr
            return
          </CharString>
          <CharString index="430">
            -105 callgsubr
            48 -107 callsubr
            return
          </CharString>
          <CharString index="431">
            -38 -18 -18 -38 hvcurveto
            -230 vlineto
            -38 18 -18 38 vhcurveto
            return
          </CharString>
          <CharString index="432">
            174 -107 callsubr
            return
          </CharString>
          <CharString index="433" raw="1">
            fb26281d 0b  
          </CharString>
          <CharString index="434">
            309 622 rmoveto
            -329 -59 return
          </CharString>
          <CharString index="435">
            -128 -99 callgsubr
            return
          </CharString>
          <CharString index="436">
            -419 vlineto
            -105 callsubr
            return
          </CharString>
          <CharString index="437" raw="1">
            fb4e281d 0b  
          </CharString>
          <CharString index="438">
            181 187 return
          </CharString>
          <CharString index="439">
            -8 hlineto
            -77 154 rlineto
            48 -24 -22 20 -58 hhcurveto
            return
          </CharString>
          <CharString index="440">
            -103 callgsubr
            -57 -105 callgsubr
            return
          </CharString>
          <CharString index="441">
            vlineto
            -29 -11 -10 -30 vhcurveto
            return
          </CharString>
          <CharString index="442">
            669 -69 -669 vlineto
            return
          </CharString>
          <CharString index="443">
            -26 -3 -2 -5 -26 hhcurveto
            -46 -64 67 hlineto
            53 return
          </CharString>
          <CharString index="444">
            158 -95 callsubr
            -87 69 return
          </CharString>
          <CharString index="445">
            332 622 rmoveto
            -352 -59 352 hlineto
            return
          </CharString>
          <CharString index="446">
            105 -99 callsubr
            return
          </CharString>
          <CharString index="447">
            -99 callsubr
            -30 return
          </CharString>
          <CharString index="448">
            -99 vlineto
            -105 callsubr
            return
          </CharString>
          <CharString index="449">
            -95 callgsubr
            -24 return
          </CharString>
          <CharString index="450">
            -81 -98 callsubr
            return
          </CharString>
          <CharString index="451">
            rmoveto
            330 60 -330 hlineto
            return
          </CharString>
          <CharString index="452">
            350 callgsubr
            -98 return
          </CharString>
          <CharString index="453">
            146 137 return
          </CharString>
          <CharString index="454">
            hhcurveto
            89 -104 callsubr
            186 return
          </CharString>
          <CharString index="455">
            vlineto
            -105 callsubr
            216 vmoveto
            -59 return
          </CharString>
          <CharString index="456">
            216 rmoveto
            -59 return
          </CharString>
          <CharString index="457">
            -541 -59 83 return
          </CharString>
        <CharString name=".notdef">
          96 0 vmoveto
          502 701 -502 hlineto
          51 -49 rmoveto
          400 -603 -400 hlineto
          200 253 rmoveto
          105 -209 rlineto
          60 hlineto
          -135 254 135 261 rlineto
          -60 hlineto
          -100 -206 rlineto
          -4 hlineto
          -105 206 rlineto
          -60 hlineto
          134 -255 -134 -260 rlineto
          60 hlineto
          100 209 rlineto
          endchar
        </CharString>
        <CharString name="A">
          -71 115 217 rmoveto
          -28 callsubr
        </CharString>
        <CharString name="AE">
          114 160 217 rmoveto
          104 292 rlineto
          -292 vlineto
          69 -158 322 callgsubr
          -257 vlineto
          -226 -622 rlineto
          69 hlineto
          56 158 rlineto
          125 -158 240 59 hlineto
          endchar
        </CharString>
        <CharString name="Aacute">
          -71 295 780 71 callgsubr
          -82 -436 rmoveto
          -28 callsubr
        </CharString>
        <CharString name="Abreve">
          -71 217 653 rmoveto
          -104 callgsubr
          48 -66 290 callsubr
          -66 186 callsubr
          -66 -48 -99 callgsubr
          -436 vmoveto
          -28 callsubr
        </CharString>
        <CharString name="Acircumflex">
          -71 166 737 54 callgsubr
          1 -436 rmoveto
          -28 callsubr
        </CharString>
        <CharString name="Adieresis">
          -71 298 737 273 callsubr
          -176 84 273 callsubr
          -7 -436 rmoveto
          -28 callsubr
        </CharString>
        <CharString name="Agrave">
          -71 191 653 142 callgsubr
          -14 -436 rmoveto
          -28 callsubr
        </CharString>
        <CharString name="Amacron">
          -71 284 711 230 callsubr
          -169 -436 rmoveto
          -28 callsubr
        </CharString>
        <CharString name="Aogonek">
          -71 115 217 rmoveto
          51 357 58 -357 rlineto
          43 -375 rmoveto
          315 callgsubr
          1 hlineto
          -1 6 rlineto
          4 -1 vlineto
          -105 612 rlineto
          -109 hlineto
          -97 -622 rlineto
          69 hlineto
          23 158 rlineto
          126 hlineto
          26 -158 rlineto
          2 -25 100 callgsubr
          hlineto
          endchar
        </CharString>
        <CharString name="Aring">
          -71 122 729 13 callgsubr
          -21 -436 rmoveto
          -28 callsubr
        </CharString>
        <CharString name="Atilde">
          -71 103 664 rmoveto
          180 callgsubr
          28 callsubr
          vlineto
          12 -436 rmoveto
          -28 callsubr
        </CharString>
        <CharString name="B">
          -33 55 622 rmoveto
          -622 197 -70 callsubr
          190 vlineto
          29 -14 13 -23 4 vhcurveto
          23 2 14 18 29 vvcurveto
          179 -99 callsubr
          10 -532 -68 callgsubr
          -107 229 107 -95 callgsubr
          121 vmoveto
          -103 callgsubr
          -107 216 107 226 callsubr
        </CharString>
        <CharString name="C">
          -69 305 438 rmoveto
          339 callsubr
          -97 hlineto
          22 callgsubr
          vlineto
          endchar
        </CharString>
        <CharString name="CR">
          -414 endchar
        </CharString>
        <CharString name="Cacute">
          -69 306 780 71 callgsubr
          -79 -31 rmoveto
          22 callgsubr
          69 105 -51 callgsubr
        </CharString>
        <CharString name="Ccaron">
          -69 222 653 15 callsubr
          -6 -31 rmoveto
          22 callgsubr
          69 105 -51 callgsubr
        </CharString>
        <CharString name="Ccedilla">
          -69 149 213 callgsubr
          156 489 rmoveto
          339 callsubr
          -97 hlineto
          22 callgsubr
          vlineto
          endchar
        </CharString>
        <CharString name="D">
          -33 262 90 195 callgsubr
        </CharString>
        <CharString name="Dcaron">
          -33 231 653 15 callsubr
          118 -563 195 callgsubr
        </CharString>
        <CharString name="Dcroat">
          152 callsubr
        </CharString>
        <CharString name="E">
          -99 124 59 rmoveto
          235 65 callsubr
          vlineto
          endchar
        </CharString>
        <CharString name="Eacute">
          -99 296 780 71 callgsubr
          -74 -359 rmoveto
          65 callsubr
          -171 hlineto
          endchar
        </CharString>
        <CharString name="Ecaron">
          -99 213 653 15 callsubr
          -2 -359 rmoveto
          65 callsubr
          -171 hlineto
          endchar
        </CharString>
        <CharString name="Ecircumflex">
          -99 172 737 54 callgsubr
          4 -359 rmoveto
          65 callsubr
          -171 hlineto
          endchar
        </CharString>
        <CharString name="Edieresis">
          -99 125 737 273 callsubr
          -1 -359 rmoveto
          65 callsubr
          -171 hlineto
          89 678 277 callsubr
        </CharString>
        <CharString name="Edotaccent">
          -99 226 739 rmoveto
          -92 -86 92 hlineto
          -102 -594 rmoveto
          235 65 callsubr
          vlineto
          endchar
        </CharString>
        <CharString name="Egrave">
          -99 202 653 142 callgsubr
          -16 -594 rmoveto
          235 65 callsubr
          vlineto
          endchar
        </CharString>
        <CharString name="Emacron">
          -99 289 728 230 callsubr
          -165 -611 rmoveto
          235 65 callsubr
          vlineto
          endchar
        </CharString>
        <CharString name="Eogonek">
          -99 235 -158 rmoveto
          96 callgsubr
          137 -171 333 callgsubr
          -233 -622 174 -25 100 callgsubr
          hlineto
          endchar
        </CharString>
        <CharString name="Eth">
          152 callsubr
        </CharString>
        <CharString name="Euro">
          -46 328 438 rmoveto
          339 callsubr
          -97 -98 callsubr
          -145 -48 -58 48 -57 -48 -59 48 -146 136 callgsubr
          105 -69 -94 -98 callgsubr
          -55 326 callgsubr
          95 59 -95 57 95 58 -95 134 115 callgsubr
          -94 vlineto
          endchar
        </CharString>
        <CharString name="F">
          -111 298 305 callsubr
          -243 -622 69 284 134 59 -134 220 vlineto
          endchar
        </CharString>
        <CharString name="G">
          -64 305 448 rmoveto
          95 -99 callsubr
          -97 hlineto
          53 callsubr
          vlineto
          endchar
        </CharString>
        <CharString name="Gbreve">
          -64 129 622 rmoveto
          53 callsubr
          69 95 -99 callsubr
          16 158 72 callgsubr
        </CharString>
        <CharString name="H">
          -32 258 622 rmoveto
          -282 -134 282 -69 -622 69 281 134 -281 69 622 vlineto
          endchar
        </CharString>
        <CharString name="I">
          172 callgsubr
          endchar
        </CharString>
        <CharString name="Iacute">
          172 callgsubr
          -61 31 rmoveto
          203 callsubr
          endchar
        </CharString>
        <CharString name="Icircumflex">
          172 callgsubr
          -161 31 225 callsubr
        </CharString>
        <CharString name="Idieresis">
          -216 -35 653 219 callsubr
          -76 -115 331 callgsubr
          622 vlineto
          endchar
        </CharString>
        <CharString name="Idotaccent">
          172 callgsubr
          -81 47 rmoveto
          92 86 -92 hlineto
          endchar
        </CharString>
        <CharString name="Igrave">
          172 callgsubr
          -81 158 296 callsubr
        </CharString>
        <CharString name="Imacron">
          172 callgsubr
          -153 48 289 callsubr
        </CharString>
        <CharString name="Iogonek">
          -216 73 -158 rmoveto
          96 callgsubr
          700 -68 -622 2 -25 100 callgsubr
          hlineto
          endchar
        </CharString>
        <CharString name="J">
          -113 15 192 rmoveto
          -113 -57 callgsubr
          543 -69 -532 267 callsubr
          102 vlineto
          endchar
        </CharString>
        <CharString name="K">
          -69 55 hmoveto
          68 622 -68 hlineto
          280 hmoveto
          284 callsubr
        </CharString>
        <CharString name="L">
          -143 123 59 239 callgsubr
        </CharString>
        <CharString name="Lacute">
          -143 217 780 71 callgsubr
          4 -594 239 callgsubr
        </CharString>
        <CharString name="Lcaron">
          -143 215 786 rmoveto
          -76 hlineto
          -53 -84 -52 84 rlineto
          -76 hlineto
          85 -127 rlineto
          87 hlineto
          -7 -600 239 callgsubr
        </CharString>
        <CharString name="Lslash">
          -138 123 59 rmoveto
          229 vlineto
          97 45 rlineto
          59 vlineto
          -97 -45 rlineto
          275 -68 -306 vlineto
          -73 -34 rlineto
          -59 vlineto
          73 34 rlineto
          -257 211 59 vlineto
          endchar
        </CharString>
        <CharString name="M">
          61 274 135 rmoveto
          87 336 rlineto
          -471 59 622 -75 vlineto
          -108 -400 -107 400 rlineto
          -75 -622 59 471 hlineto
          87 -336 rlineto
          endchar
        </CharString>
        <CharString name="N">
          -37 259 622 114 callgsubr
        </CharString>
        <CharString name="NULL">
          -414 endchar
        </CharString>
        <CharString name="Nacute">
          -37 161 653 rmoveto
          203 callsubr
          20 -158 114 callgsubr
        </CharString>
        <CharString name="Ncaron">
          -37 149 653 rmoveto
          87 hlineto
          85 127 rlineto
          -76 hlineto
          -53 -84 -52 84 rlineto
          -76 hlineto
          195 -158 114 callgsubr
        </CharString>
        <CharString name="Ntilde">
          -37 259 622 173 callsubr
          -85 31 rmoveto
          28 callsubr
          11 vlineto
          180 callgsubr
          endchar
        </CharString>
        <CharString name="O">
          -54 242 90 -44 callgsubr
          endchar
        </CharString>
        <CharString name="OE">
          103 242 292 callgsubr
          -62 318 callgsubr
          62 hlineto
          26 5 -5 -26 hvcurveto
          79 -473 322 callgsubr
          -223 -19 vlineto
          13 -12 -19 6 -26 hhcurveto
          -76 146 callgsubr
          77 hlineto
          26 18 6 13 12 hvcurveto
          -19 230 59 vlineto
          endchar
        </CharString>
        <CharString name="Oacute">
          -54 300 780 71 callgsubr
          40 -49 callsubr
          endchar
        </CharString>
        <CharString name="Ocircumflex">
          -54 179 737 54 callgsubr
          115 -49 callsubr
          endchar
        </CharString>
        <CharString name="Odieresis">
          -54 136 737 273 callsubr
          106 -49 callsubr
          -7 115 277 callsubr
        </CharString>
        <CharString name="Ograve">
          -54 200 653 142 callgsubr
          104 -49 callsubr
          endchar
        </CharString>
        <CharString name="Ohungarumlaut">
          -54 256 653 134 callgsubr
          86 -49 callsubr
          endchar
        </CharString>
        <CharString name="Omacron">
          -54 298 711 230 callsubr
          -56 -49 callsubr
          endchar
        </CharString>
        <CharString name="Oslash">
          -44 248 87 rmoveto
          -26 -5 -5 -27 vhcurveto
          -63 hlineto
          -12 -8 1 4 -4 hvcurveto
          119 372 rlineto
          -126 102 190 callgsubr
          63 hlineto
          13 7 -1 -4 5 hvcurveto
          -119 -372 rlineto
          193 453 rmoveto
          -48 hlineto
          -7 -22 rlineto
          1 -7 -8 1 -9 hhcurveto
          290 callgsubr
          -464 vlineto
          -23 5 -18 10 -13 vhcurveto
          -15 -45 rlineto
          48 hlineto
          7 22 rlineto
          -1 7 8 -1 9 hhcurveto
          102 -104 callsubr
          464 vlineto
          23 -5 18 -10 13 vhcurveto
          endchar
        </CharString>
        <CharString name="Otilde">
          -54 116 664 rmoveto
          180 callgsubr
          28 callsubr
          vlineto
          126 -49 callsubr
          endchar
        </CharString>
        <CharString name="P">
          -69 247 340 -68 callgsubr
          -93 254 93 -95 callgsubr
          -192 90 331 callgsubr
          250 113 -70 callsubr
          214 -51 callgsubr
        </CharString>
        <CharString name="Q">
          -54 118 532 rmoveto
          64 callgsubr
          -442 -98 callgsubr
          -62 -105 callgsubr
          195 -187 rmoveto
          -65 98 rlineto
          42 5 20 26 47 vvcurveto
          186 callgsubr
          -102 146 callgsubr
          53 hlineto
          63 -97 rlineto
          endchar
        </CharString>
        <CharString name="R">
          -50 123 563 57 callsubr
        </CharString>
        <CharString name="Racute">
          -50 307 780 71 callgsubr
          -86 -90 57 callsubr
        </CharString>
        <CharString name="Rcaron">
          -50 224 653 15 callsubr
          -14 -90 57 callsubr
        </CharString>
        <CharString name="S">
          -87 218 90 -48 callsubr
        </CharString>
        <CharString name="Sacute">
          -87 128 653 rmoveto
          203 callsubr
          12 -690 -48 callsubr
        </CharString>
        <CharString name="Scaron">
          -87 121 653 rmoveto
          87 hlineto
          85 127 rlineto
          -76 hlineto
          -53 -84 -52 84 rlineto
          -76 hlineto
          182 -690 -48 callsubr
        </CharString>
        <CharString name="T">
          -136 273 622 216 callgsubr
        </CharString>
        <CharString name="Tcaron">
          -136 183 653 15 callsubr
          177 -31 216 callgsubr
        </CharString>
        <CharString name="Thorn">
          -69 247 215 -68 callgsubr
          -93 254 93 -95 callgsubr
          -124 90 rmoveto
          125 -68 -622 68 125 113 -70 callsubr
          214 -51 callgsubr
        </CharString>
        <CharString name="U">
          -50 244 622 rmoveto
          -532 vlineto
          -12 callsubr
          vlineto
          endchar
        </CharString>
        <CharString name="Uacute">
          -50 310 780 71 callgsubr
          32 -31 rmoveto
          -532 vlineto
          -12 callsubr
          vlineto
          endchar
        </CharString>
        <CharString name="Ucircumflex">
          -50 181 737 54 callgsubr
          115 -31 rmoveto
          -532 vlineto
          -12 callsubr
          vlineto
          endchar
        </CharString>
        <CharString name="Udieresis">
          -50 138 737 273 callsubr
          106 -563 rmoveto
          -12 callsubr
          -68 vlineto
          -18 115 277 callsubr
        </CharString>
        <CharString name="Ugrave">
          -50 213 653 142 callgsubr
          93 -31 rmoveto
          -532 vlineto
          -12 callsubr
          vlineto
          endchar
        </CharString>
        <CharString name="Uhungarumlaut">
          -50 256 653 134 callgsubr
          88 -563 rmoveto
          -12 callsubr
          -68 vlineto
          endchar
        </CharString>
        <CharString name="Umacron">
          -50 301 711 230 callsubr
          -57 -31 rmoveto
          -532 vlineto
          -12 callsubr
          vlineto
          endchar
        </CharString>
        <CharString name="Uogonek">
          -50 244 622 rmoveto
          -532 -98 callgsubr
          -62 -105 callgsubr
          532 -68 -543 -99 callgsubr
          25 217 callsubr
          11 -104 callsubr
          543 vlineto
          endchar
        </CharString>
        <CharString name="Uring">
          -50 137 729 13 callgsubr
          93 -31 rmoveto
          -532 vlineto
          -12 callsubr
          vlineto
          endchar
        </CharString>
        <CharString name="V">
          -95 245 622 rmoveto
          -86 -574 -85 574 rlineto
          -69 hlineto
          100 -622 rlineto
          109 hlineto
          100 622 rlineto
          endchar
        </CharString>
        <CharString name="W">
          135 470 622 rmoveto
          -76 -574 -79 574 rlineto
          -82 hlineto
          -79 -574 -75 574 rlineto
          -69 hlineto
          91 -622 rlineto
          104 hlineto
          69 493 70 -493 rlineto
          104 hlineto
          91 622 rlineto
          endchar
        </CharString>
        <CharString name="X">
          -80 203 318 rmoveto
          116 304 rlineto
          -74 hlineto
          -78 -242 -78 242 rlineto
          -74 hlineto
          116 -304 -126 -318 rlineto
          74 hlineto
          88 253 88 -253 rlineto
          74 hlineto
          endchar
        </CharString>
        <CharString name="Y">
          -95 245 622 238 callsubr
        </CharString>
        <CharString name="Yacute">
          -95 291 780 71 callgsubr
          52 237 callgsubr
        </CharString>
        <CharString name="Ydieresis">
          -95 295 737 273 callsubr
          -176 84 273 callsubr
          126 237 callgsubr
        </CharString>
        <CharString name="Z">
          -141 268 623 rmoveto
          -253 -59 153 callgsubr
          endchar
        </CharString>
        <CharString name="Zacute">
          -141 276 780 71 callgsubr
          -163 -89 rmoveto
          153 callgsubr
          59 -253 vlineto
          endchar
        </CharString>
        <CharString name="Zcaron">
          -141 182 653 15 callsubr
          173 -30 rmoveto
          -253 -59 153 callgsubr
          endchar
        </CharString>
        <CharString name="Zdotaccent">
          -141 190 739 rmoveto
          -92 -86 92 hlineto
          78 -30 rmoveto
          -253 -59 153 callgsubr
          endchar
        </CharString>
        <CharString name="a">
          -86 140 59 -52 callgsubr
          -33 69 485 vlineto
          endchar
        </CharString>
        <CharString name="aacute">
          -86 298 643 71 callgsubr
          -60 -457 -45 callgsubr
          34 393 rmoveto
          -46 callsubr
          -33 69 485 -69 vlineto
          endchar
        </CharString>
        <CharString name="abreve">
          -86 140 59 -45 callgsubr
          34 393 rmoveto
          -46 callsubr
          -33 69 485 -69 vlineto
          12 158 72 callgsubr
        </CharString>
        <CharString name="acircumflex">
          -86 166 600 54 callgsubr
          26 -457 -45 callgsubr
          34 393 rmoveto
          -46 callsubr
          -33 69 485 -69 vlineto
          endchar
        </CharString>
        <CharString name="acute">
          -14 118 516 rmoveto
          203 callsubr
          endchar
        </CharString>
        <CharString name="adieresis">
          -86 116 625 273 callsubr
          24 -482 -45 callgsubr
          34 393 rmoveto
          -46 callsubr
          -33 69 485 -69 vlineto
          -10 140 277 callsubr
        </CharString>
        <CharString name="ae">
          95 145 59 -54 callgsubr
          76 vlineto
          105 42 rlineto
          -119 vlineto
          -23 -2 -10 -7 -22 hhcurveto
          184 367 rmoveto
          -102 callgsubr
          -117 -112 117 -107 callsubr
          -31 -207 rmoveto
          331 callsubr
          hlineto
          -97 callsubr
          -83 hlineto
          -29 -21 -20 -18 -5 hvcurveto
          18 -5 -20 20 -32 hhcurveto
          -71 -98 callsubr
          -94 69 83 97 callgsubr
          22 10 -8 -22 2 hvcurveto
          -125 vlineto
          -174 -71 rlineto
          -121 -99 callgsubr
          71 hlineto
          32 20 20 18 5 hvcurveto
          -18 5 21 -20 29 hhcurveto
          80 193 callsubr
          endchar
        </CharString>
        <CharString name="agrave">
          -86 221 516 142 callgsubr
          -19 -457 -52 callgsubr
          -33 69 485 vlineto
          endchar
        </CharString>
        <CharString name="amacron">
          -86 278 608 230 callsubr
          -138 -491 -52 callgsubr
          -33 69 485 vlineto
          endchar
        </CharString>
        <CharString name="ampersand">
          4 139 59 -54 callgsubr
          87 vlineto
          35 9 11 22 15 vhcurveto
          27 19 157 -196 rlineto
          -1 -5 -6 -1 -9 hhcurveto
          -175 473 190 callgsubr
          52 -95 callgsubr
          -88 vlineto
          -44 -18 -20 -39 -27 vhcurveto
          -9 -7 rlineto
          -23 27 -25 31 30 vvcurveto
          347 -469 rmoveto
          -85 108 rlineto
          6 vlineto
          145 -56 -79 vlineto
          -117 149 24 17 rlineto
          45 29 24 34 70 vvcurveto
          99 323 callgsubr
          -103 vlineto
          -48 33 -42 33 -43 vhcurveto
          -34 -26 rlineto
          -39 -27 -13 -21 -38 vvcurveto
          -116 -99 callgsubr
          192 hlineto
          21 17 4 9 13 hvcurveto
          38 -48 rlineto
          endchar
        </CharString>
        <CharString name="aogonek">
          -86 140 59 -45 callgsubr
          43 -217 301 callgsubr
          -33 hlineto
          -46 callsubr
          -33 3 -25 -8 vlineto
          -105 callsubr
          -29 175 callgsubr
          54 hlineto
          endchar
        </CharString>
        <CharString name="approxequal">
          58 317 386 rmoveto
          99 callgsubr
          -170 vmoveto
          99 callgsubr
          endchar
        </CharString>
        <CharString name="aring">
          -86 124 603 13 callgsubr
          2 -468 -52 callgsubr
          -33 69 485 vlineto
          endchar
        </CharString>
        <CharString name="asciicircum">
          29 180 671 rmoveto
          -135 -344 rlineto
          72 hlineto
          104 277 105 -277 rlineto
          72 hlineto
          -135 344 rlineto
          endchar
        </CharString>
        <CharString name="asciitilde">
          58 318 216 rmoveto
          99 callgsubr
          endchar
        </CharString>
        <CharString name="asterisk">
          -112 287 500 rmoveto
          -20 59 -38 -12 -22 -7 -17 -8 -13 -7 rlinecurve
          3 14 2 19 23 vvcurveto
          41 -62 -41 vlineto
          -23 2 -19 3 -15 vhcurveto
          -13 7 -17 9 -22 7 -39 13 rcurveline
          -19 -59 39 -13 22 -7 19 -4 14 -2 rlinecurve
          -11 -10 -13 -14 -13 -18 -25 -33 rcurveline
          51 -37 24 33 14 19 9 17 6 13 rlinecurve
          6 -13 10 -17 13 -18 24 -34 rcurveline
          50 37 -24 33 -13 19 -13 14 -11 10 rlinecurve
          14 2 19 3 21 7 rrcurveto
          endchar
        </CharString>
        <CharString name="at">
          237 229 348 rmoveto
          -188 -99 callgsubr
          30 hlineto
          31 27 13 36 4 hvcurveto
          -49 126 -70 callsubr
          325 -99 callsubr
          -362 -98 callsubr
          -467 -99 callgsubr
          298 61 -277 -105 callgsubr
          440 vlineto
          26 5 6 26 vhcurveto
          321 hlineto
          26 5 -6 -26 hvcurveto
          -300 -98 callgsubr
          -45 287 -68 -34 hlineto
          24 -8 -21 10 -26 hhcurveto
          -30 -98 callsubr
          69 -11 190 callgsubr
          30 hlineto
          24 10 -9 -27 hvcurveto
          -156 235 callsubr
          -30 -105 callgsubr
          endchar
        </CharString>
        <CharString name="atilde">
          -86 140 59 -45 callgsubr
          34 393 rmoveto
          -46 callsubr
          -33 69 485 -69 vlineto
          8 139 rmoveto
          -10 vlineto
          -21 -5 -4 -14 vhcurveto
          -24 -25 35 -42 hhcurveto
          -6 hlineto
          -55 -17 -29 -47 hvcurveto
          -14 62 11 vlineto
          180 callgsubr
          5 hlineto
          56 15 30 46 hvcurveto
          14 vlineto
          endchar
        </CharString>
        <CharString name="b">
          -86 219 292 callgsubr
          -40 hlineto
          -24 -10 9 27 hvcurveto
          296 vlineto
          27 10 9 24 26 callsubr
          -50 90 rmoveto
          235 callgsubr
          216 -69 -669 69 33 vlineto
          -24 8 20 -9 27 hhcurveto
          40 -104 callsubr
          328 -51 callgsubr
        </CharString>
        <CharString name="backslash">
          -29 44 699 rmoveto
          264 -835 rlineto
          69 hlineto
          -264 835 rlineto
          endchar
        </CharString>
        <CharString name="bar">
          55 719 rmoveto
          -817 69 817 vlineto
          endchar
        </CharString>
        <CharString name="braceleft">
          -143 180 689 rmoveto
          24 8 9 26 vhcurveto
          50 59 -83 hlineto
          -56 -13 -31 -47 hvcurveto
          -249 vlineto
          -81 -27 -36 -61 vhcurveto
          -19 -58 19 hlineto
          61 27 -36 -80 hvcurveto
          -251 vlineto
          -48 13 -30 56 vhcurveto
          83 59 -50 hlineto
          -26 -8 9 24 hvcurveto
          263 vlineto
          68 -24 44 -51 7 vhcurveto
          51 6 24 44 70 vvcurveto
          endchar
        </CharString>
        <CharString name="braceright">
          -143 90 428 rmoveto
          -70 24 -44 51 -6 vhcurveto
          -51 -7 -24 -44 -68 vvcurveto
          -263 vlineto
          -24 -8 -9 -26 vhcurveto
          -50 -59 83 hlineto
          56 13 30 48 hvcurveto
          251 vlineto
          80 27 36 61 vhcurveto
          19 58 -19 hlineto
          -61 -27 36 81 hvcurveto
          249 vlineto
          47 -13 31 -56 vhcurveto
          -83 -59 50 hlineto
          26 8 -9 -24 hvcurveto
          endchar
        </CharString>
        <CharString name="bracketleft">
          -105 233 722 rmoveto
          59 -170 -948 170 59 -101 830 vlineto
          endchar
        </CharString>
        <CharString name="bracketright">
          -105 223 781 rmoveto
          -170 -59 101 -830 -101 -59 170 hlineto
          endchar
        </CharString>
        <CharString name="breve">
          -14 264 643 72 callgsubr
        </CharString>
        <CharString name="brokenbar">
          55 247 rmoveto
          -345 69 345 vlineto
          127 vmoveto
          345 -69 -345 vlineto
          endchar
        </CharString>
        <CharString name="bullet">
          -18 71 321 rmoveto
          -70 57 -57 70 70 57 57 70 70 -57 57 -70 -70 -57 -57 -70 vhcurveto
          endchar
        </CharString>
        <CharString name="c">
          -89 290 341 rmoveto
          65 vlineto
          53 -26 26 -53 vhcurveto
          -92 hlineto
          157 callgsubr
          vlineto
          endchar
        </CharString>
        <CharString name="cacute">
          -89 291 643 71 callgsubr
          -74 131 callgsubr
        </CharString>
        <CharString name="caron">
          -14 156 516 rmoveto
          87 hlineto
          85 127 rlineto
          -76 hlineto
          -53 -84 -52 84 rlineto
          -76 hlineto
          endchar
        </CharString>
        <CharString name="ccaron">
          -89 210 516 15 callsubr
          -4 131 callgsubr
        </CharString>
        <CharString name="ccedilla">
          -89 136 213 callgsubr
          154 392 rmoveto
          65 vlineto
          53 -26 26 -53 vhcurveto
          -92 hlineto
          157 callgsubr
          vlineto
          endchar
        </CharString>
        <CharString name="cedilla">
          -14 208 213 callgsubr
          endchar
        </CharString>
        <CharString name="cent">
          -89 290 341 rmoveto
          65 -99 callsubr
          -10 76 -65 -76 -17 -78 callsubr
          17 -75 65 75 10 -104 callsubr
          65 -69 -54 -98 callgsubr
          -50 -77 callgsubr
          50 hlineto
          26 5 -5 -26 hvcurveto
          -54 vlineto
          endchar
        </CharString>
        <CharString name="circumflex">
          -14 71 516 225 callsubr
        </CharString>
        <CharString name="colon">
          -272 30 hmoveto
          294 callgsubr
          261 vmoveto
          294 callgsubr
          endchar
        </CharString>
        <CharString name="comma">
          -272 30 -137 rmoveto
          181 callgsubr
          endchar
        </CharString>
        <CharString name="commaaccent">
          -14 160 23 callsubr
          endchar
        </CharString>
        <CharString name="copyright">
          268 651 342 rmoveto
          185 -63 95 -143 vhcurveto
          -190 hlineto
          -143 -63 -95 -185 hvcurveto
          -71 vlineto
          -185 63 -86 143 vhcurveto
          190 hlineto
          143 63 86 185 hvcurveto
          -394 -211 rmoveto
          -111 -30 92 118 hvcurveto
          73 vlineto
          118 30 103 111 vhcurveto
          186 hlineto
          111 30 -103 -118 hvcurveto
          -73 vlineto
          -118 -30 -92 -111 vhcurveto
          -37 180 -68 callgsubr
          -50 -105 callgsubr
          155 60 callsubr
          -24 69 35 323 callgsubr
          -177 175 callgsubr
          -104 callsubr
          35 -69 vlineto
          endchar
        </CharString>
        <CharString name="currency">
          40 207 170 -54 callgsubr
          195 34 callgsubr
          -195 -98 callgsubr
          99 237 rmoveto
          15 -2 13 -4 10 vhcurveto
          41 41 -46 46 -48 -47 rlineto
          1 -6 -7 0 -7 hhcurveto
          -102 hlineto
          -10 -9 -1 -2 -8 hvcurveto
          -49 49 -46 -46 47 -47 rlineto
          -3 -9 -1 -11 -12 vvcurveto
          -217 vlineto
          -12 1 -10 3 -9 vhcurveto
          -47 -46 46 -46 48 47 rlineto
          -2 8 9 -1 11 hhcurveto
          102 hlineto
          8 7 1 1 7 hvcurveto
          46 -46 46 46 -41 40 rlineto
          4 10 2 13 14 vvcurveto
          endchar
        </CharString>
        <CharString name="d">
          -86 218 callsubr
          610 rmoveto
          -216 vlineto
          218 callgsubr
          vlineto
          endchar
        </CharString>
        <CharString name="dagger">
          -76 333 458 rmoveto
          334 callgsubr
          -509 68 509 130 hlineto
          endchar
        </CharString>
        <CharString name="daggerdbl">
          -56 343 399 rmoveto
          59 334 callgsubr
          -333 -130 -59 130 -164 68 164 130 59 -130 333 vlineto
          endchar
        </CharString>
        <CharString name="dcaron">
          -60 218 callsubr
          394 rmoveto
          218 callgsubr
          -69 vlineto
          114 hmoveto
          -160 27 vlineto
          35 121 rlineto
          39 vlineto
          endchar
        </CharString>
        <CharString name="dcroat">
          -81 145 59 -45 callgsubr
          148 544 rmoveto
          -45 66 -69 -66 -85 -59 85 -92 hlineto
          -46 callsubr
          -33 69 544 45 vlineto
          endchar
        </CharString>
        <CharString name="degree">
          -58 292 545 rmoveto
          52 -25 25 -52 vhcurveto
          -80 hlineto
          -52 -25 -25 -52 hvcurveto
          -115 vlineto
          -52 25 -25 52 vhcurveto
          80 hlineto
          52 25 25 52 hvcurveto
          -64 9 rmoveto
          -25 -102 callsubr
          -44 hlineto
          -26 -5 5 25 hvcurveto
          97 vlineto
          25 -103 callsubr
          44 hlineto
          26 5 -5 -25 hvcurveto
          endchar
        </CharString>
        <CharString name="dieresis">
          -14 68 541 219 callsubr
          endchar
        </CharString>
        <CharString name="divide">
          -34 25 281 344 callsubr
          130 150 rmoveto
          -80 70 80 vlineto
          -70 -280 rmoveto
          -80 70 80 vlineto
          endchar
        </CharString>
        <CharString name="dollar">
          -87 140 350 rmoveto
          54 callsubr
          -11 75 -65 -75 -12 -98 callsubr
          -173 -99 callgsubr
          68 -95 callgsubr
          -170 -98 callgsubr
          -45 -105 callgsubr
          85 -69 165 callgsubr
          10 -75 65 75 12 174 callgsubr
          endchar
        </CharString>
        <CharString name="dotaccent">
          -14 154 536 rmoveto
          92 86 -92 hlineto
          endchar
        </CharString>
        <CharString name="dotlessi">
          163 callgsubr
          endchar
        </CharString>
        <CharString name="dvBH_N">
          283 540 -20 callgsubr
          -257 -258 -47 callsubr
          157 59 rmoveto
          -88 142 hlineto
          43 callgsubr
          198 callsubr
          -258 348 callsubr
          337 59 vlineto
          endchar
        </CharString>
        <CharString name="dvB_N">
          168 425 -20 callgsubr
          -210 -289 -74 callsubr
          34 134 rmoveto
          149 callsubr
          108 59 -258 vlineto
          -53 -26 -26 -53 hvcurveto
          -285 349 callsubr
          622 59 vlineto
          endchar
        </CharString>
        <CharString name="dvCH_N">
          87 177 -195 rmoveto
          16 callgsubr
          65 680 -81 callsubr
          156 -57 -80 88 callsubr
          59 -99 69 215 15 76 callgsubr
        </CharString>
        <CharString name="dvC_N">
          142 419 39 callsubr
          -255 rmoveto
          -80 callgsubr
          -57 -105 callgsubr
          227 vlineto
          26 5 4 27 1 vhcurveto
          40 55 callsubr
          94 78 callgsubr
          -279 349 callsubr
          616 59 vlineto
          endchar
        </CharString>
        <CharString name="dvDDH_DDHA">
          -37 282 200 callsubr
          115 59 -417 250 callsubr
          -189 -86 callsubr
          -186 316 callgsubr
          41 -99 callsubr
          -91 -59 70 -95 callgsubr
          -19 220 callsubr
          164 -107 callsubr
          114 182 callsubr
          endchar
        </CharString>
        <CharString name="dvDD_GA">
          -63 281 312 callsubr
          -391 -59 232 -78 -73 vlineto
          -65 callgsubr
          -30 8 -21 17 -13 vhcurveto
          -66 150 callsubr
          53 -170 69 183 vlineto
          18 13 9 22 31 vvcurveto
          -63 callgsubr
          endchar
        </CharString>
        <CharString name="dvDD_N">
          -63 81 -196 rmoveto
          16 callgsubr
          124 622 293 callsubr
          -391 -59 232 -78 -73 vlineto
          -65 callgsubr
          -53 26 -26 53 vhcurveto
          66 -57 -47 88 callsubr
          26 -99 69 227 hlineto
          19 13 10 22 32 vvcurveto
          -63 callgsubr
          endchar
        </CharString>
        <CharString name="dvDH_N">
          226 480 39 callsubr
          -255 rmoveto
          -73 callgsubr
          151 193 callgsubr
          121 59 -271 348 callsubr
          350 59 vlineto
          endchar
        </CharString>
        <CharString name="dvD_N">
          -67 113 -123 rmoveto
          16 callgsubr
          103 549 98 callsubr
        </CharString>
        <CharString name="dvGH_N">
          195 361 297 callgsubr
          60 -258 hlineto
          -90 callgsubr
          268 395 rmoveto
          59 -649 -59 82 vlineto
          253 callgsubr
          -136 -86 callsubr
          -144 -99 callgsubr
          147 78 callgsubr
          -235 vlineto
          -80 callgsubr
          -110 104 callsubr
          4 27 1 vhcurveto
          endchar
        </CharString>
        <CharString name="dvG_N">
          286 543 39 callsubr
          -269 rmoveto
          122 callsubr
          -248 -269 -64 callsubr
          536 485 rmoveto
          -740 -59 -71 callsubr
          436 vlineto
          endchar
        </CharString>
        <CharString name="dvJH_N">
          293 459 297 callgsubr
          60 -258 hlineto
          -90 callgsubr
          -167 258 rmoveto
          137 435 59 -747 345 callsubr
          vlineto
          -60 callgsubr
          91 -108 hlineto
          122 callsubr
          -82 -244 vlineto
          24 callgsubr
          endchar
        </CharString>
        <CharString name="dvJ_N">
          281 535 -20 callgsubr
          250 59 rmoveto
          -515 212 callgsubr
          97 vlineto
          -51 callsubr
          31 callsubr
          121 vlineto
          -745 196 rmoveto
          -59 745 59 vlineto
          endchar
        </CharString>
        <CharString name="dvKH_N">
          388 624 39 callsubr
          -209 rmoveto
          67 callsubr
          -7 callsubr
          139 59 -289 vlineto
          -105 callsubr
          -484 349 callsubr
          172 vlineto
          -72 callgsubr
          588 59 hlineto
          endchar
        </CharString>
        <CharString name="dvK_N">
          267 553 396 rmoveto
          -228 115 callsubr
          197 -107 callsubr
          238 167 rmoveto
          59 -751 -59 239 -392 vlineto
          -64 callgsubr
          14 11 3 6 7 hvcurveto
          -87 69 362 -29 callsubr
          72 hlineto
          -51 callsubr
          136 callsubr
          71 -104 callsubr
          239 109 59 -411 vlineto
          -56 callsubr
          117 vlineto
          endchar
        </CharString>
        <CharString name="dvM_N">
          290 533 168 167 callgsubr
          529 190 rmoveto
          59 -744 -59 553 -131 329 callsubr
          269 callgsubr
          71 -104 callsubr
          216 86 callgsubr
          -196 -76 callsubr
          216 122 59 -122 131 vlineto
          endchar
        </CharString>
        <CharString name="dvMatraI.a33">
          -101 callsubr
          896 -79 callgsubr
        </CharString>
        <CharString name="dvMatraI.a34">
          -101 callsubr
          918 -79 callgsubr
        </CharString>
        <CharString name="dvMatraI.a35">
          -101 callsubr
          939 -79 callgsubr
        </CharString>
        <CharString name="dvMatraI.a36">
          -101 callsubr
          961 -79 callgsubr
        </CharString>
        <CharString name="dvMatraI.a37">
          -101 callsubr
          983 -79 callgsubr
        </CharString>
        <CharString name="dvMatraI.a38">
          -101 callsubr
          1004 -79 callgsubr
        </CharString>
        <CharString name="dvMatraI.a39">
          -101 callsubr
          1026 -79 callgsubr
        </CharString>
        <CharString name="dvMatraI.a40">
          -101 callsubr
          1047 -79 callgsubr
        </CharString>
        <CharString name="dvMatraI.a41">
          -101 callsubr
          1069 -79 callgsubr
        </CharString>
        <CharString name="dvMatraI.a42">
          -101 callsubr
          1090 -79 callgsubr
        </CharString>
        <CharString name="dvMatraI.a43">
          -101 callsubr
          1112 -79 callgsubr
        </CharString>
        <CharString name="dvMatraI.a44">
          -101 callsubr
          1134 -79 callgsubr
        </CharString>
        <CharString name="dvMatraI.a45">
          -101 callsubr
          1155 -79 callgsubr
        </CharString>
        <CharString name="dvMatraI.a46">
          -101 callsubr
          1177 -79 callgsubr
        </CharString>
        <CharString name="dvMatraI.a47">
          -101 callsubr
          1198 -79 callgsubr
        </CharString>
        <CharString name="dvMatraI.a48">
          -101 callsubr
          1220 -79 callgsubr
        </CharString>
        <CharString name="dvMatraI.a49">
          -101 callsubr
          1241 -79 callgsubr
        </CharString>
        <CharString name="dvMatraI.a50">
          -101 callsubr
          1263 -79 callgsubr
        </CharString>
        <CharString name="dvNG_GA">
          -63 273 308 -39 callgsubr
          -293 228 rmoveto
          -59 232 -78 -73 vlineto
          -65 callgsubr
          -30 8 -21 17 -13 vhcurveto
          -66 150 callsubr
          53 -170 69 183 vlineto
          18 13 9 22 31 vvcurveto
          -63 callgsubr
          121 137 90 59 hlineto
          endchar
        </CharString>
        <CharString name="dvNG_MA">
          109 358 407 rmoveto
          -73 -86 73 hlineto
          50 -247 rmoveto
          -135 165 hlineto
          -97 callsubr
          -54 -105 callgsubr
          46 -107 callsubr
          123 137 145 hlineto
          145 59 rmoveto
          -573 -59 214 -78 -75 -98 callsubr
          -68 -99 callgsubr
          54 -95 callgsubr
          -88 -22 callgsubr
          48 -69 -59 -99 callgsubr
          68 hlineto
          10 9 1 2 8 hvcurveto
          -129 69 91 135 -141 69 689 76 vlineto
          endchar
        </CharString>
        <CharString name="dvNY_CA">
          288 722 622 rmoveto
          -742 -59 598 117 callsubr
          -204 -59 71 hlineto
          -5 -5 -3 -8 -13 vvcurveto
          -67 -125 73 vlineto
          0 callsubr
          125 328 callgsubr
          83 -92 callsubr
        </CharString>
        <CharString name="dvN_N">
          248 515 -20 callgsubr
          -260 -258 -93 callgsubr
          497 59 rmoveto
          -578 -47 callgsubr
          86 callgsubr
          31 callsubr
          108 vlineto
          -712 196 rmoveto
          -59 712 59 vlineto
          endchar
        </CharString>
        <CharString name="dvPH_N">
          299 222 -38 callgsubr
          334 -137 rmoveto
          -258 vlineto
          -96 callsubr
          237 137 rmoveto
          59 -753 -59 68 -406 vlineto
          168 callsubr
          108 59 -410 vlineto
          -56 callsubr
          87 vlineto
          endchar
        </CharString>
        <CharString name="dvP_N">
          130 296 297 callgsubr
          60 -258 hlineto
          -90 callgsubr
          268 395 rmoveto
          59 -584 -59 68 223 callsubr
          82 78 callgsubr
          -235 vlineto
          -80 callgsubr
          -45 -105 callgsubr
          395 vlineto
          endchar
        </CharString>
        <CharString name="dvSHA_MatraVocalicR">
          66 121 531 154 callsubr
          305 -342 rmoveto
          529 74 59 -143 -278 -95 92 callsubr
          141 -191 -3 hlineto
          -51 -25 -83 callsubr
          -58 94 callsubr
          endchar
        </CharString>
        <CharString name="dvSH_VA.aSimp">
          273 126 623 rmoveto
          -91 callgsubr
          495 -1 rmoveto
          -386 -59 242 -392 hlineto
          -64 callgsubr
          14 11 3 6 7 hvcurveto
          -87 69 -1 callsubr
          endchar
        </CharString>
        <CharString name="dvS_N">
          299 555 168 -93 callgsubr
          178 59 rmoveto
          -259 -98 callsubr
          -62 -116 vlineto
          -78 callgsubr
          449 59 -752 -59 211 hlineto
          -100 callsubr
          281 328 callsubr
          -7 callsubr
          109 vlineto
          endchar
        </CharString>
        <CharString name="dvTH_N">
          212 466 39 callsubr
          -255 rmoveto
          12 callgsubr
          71 -104 callsubr
          269 111 59 -261 348 callsubr
          340 59 vlineto
          endchar
        </CharString>
        <CharString name="dvTTH_N">
          -46 96 -193 rmoveto
          16 callgsubr
          79 283 -34 callgsubr
          -53 26 -26 53 vhcurveto
          76 -57 -47 88 callsubr
          26 -99 69 221 hlineto
          27 11 14 24 38 183 callgsubr
        </CharString>
        <CharString name="dvTTH_TTHA">
          -46 267 280 -68 callgsubr
          -81 -105 callgsubr
          115 -107 callsubr
          81 -95 callgsubr
          -448 vmoveto
          -103 callgsubr
          -81 -105 callgsubr
          116 -107 callsubr
          81 -95 callgsubr
          104 500 rmoveto
          59 -391 -59 178 -78 -24 vlineto
          -105 callsubr
          -137 -99 callgsubr
          24 -37 -24 -98 callsubr
          -138 -99 callgsubr
          123 -104 callsubr
          138 340 callsubr
          37 30 -104 callsubr
          137 340 callsubr
          78 hlineto
          endchar
        </CharString>
        <CharString name="dvTT_GA">
          -80 282 200 callsubr
          72 59 -374 250 callsubr
          -327 vlineto
          -27 7 -21 14 -13 vhcurveto
          -69 150 callsubr
          53 -170 69 187 vlineto
          15 13 7 21 28 vvcurveto
          -22 callsubr
        </CharString>
        <CharString name="dvTT_N">
          -80 90 -196 rmoveto
          16 callgsubr
          116 622 rmoveto
          137 72 59 -374 250 callsubr
          -327 245 callgsubr
          234 hlineto
          13 13 7 20 27 vvcurveto
          -22 callsubr
        </CharString>
        <CharString name="dvT_KH_NA">
          702 825 -3 callsubr
          -1146 -59 373 hlineto
          -35 callsubr
          329 callgsubr
          -313 -9 callsubr
          288 251 callsubr
          -333 hlineto
          73 callsubr
          537 149 callgsubr
          -189 vlineto
          -44 callsubr
          19 13 5 12 7 hvcurveto
          -39 6 25 -19 46 hhcurveto
          15 callgsubr
        </CharString>
        <CharString name="dvT_N">
          160 397 -20 callgsubr
          257 59 rmoveto
          -470 -42 callgsubr
          93 260 callgsubr
          128 vlineto
          -614 196 rmoveto
          -59 614 59 vlineto
          endchar
        </CharString>
        <CharString name="dvT_R_KA">
          297 731 305 callsubr
          -751 -59 443 225 callgsubr
          -143 -8 vlineto
          -77 154 rlineto
          -16 callgsubr
          23 -46 hlineto
          -106 callgsubr
          -101 callgsubr
        </CharString>
        <CharString name="dvT_S_NA">
          626 916 485 rmoveto
          203 callgsubr
          -62 -116 vlineto
          -78 callgsubr
          429 hlineto
          -157 -395 -93 callgsubr
          301 196 rmoveto
          -1080 84 callsubr
          281 -128 32 callsubr
        </CharString>
        <CharString name="dvV_N">
          125 382 39 callsubr
          -256 rmoveto
          138 callsubr
          108 59 -258 vlineto
          -53 -26 -26 -53 hvcurveto
          -242 349 callsubr
          579 59 vlineto
          endchar
        </CharString>
        <CharString name="dvY_N">
          207 373 297 callgsubr
          60 -258 hlineto
          -90 callgsubr
          268 454 rmoveto
          -661 -59 120 93 callgsubr
          172 78 callgsubr
          -235 vlineto
          -90 callsubr
          434 hlineto
          endchar
        </CharString>
        <CharString name="e">
          -84 114 278 -66 callgsubr
          endchar
        </CharString>
        <CharString name="eacute">
          -84 298 643 71 callgsubr
          -86 -238 -66 callgsubr
          endchar
        </CharString>
        <CharString name="ecaron">
          -84 213 516 15 callsubr
          -12 -238 -66 callgsubr
          endchar
        </CharString>
        <CharString name="ecircumflex">
          -86 171 600 54 callgsubr
          -5 -238 -66 callgsubr
          endchar
        </CharString>
        <CharString name="edieresis">
          -86 120 625 273 callsubr
          -6 -263 -66 callgsubr
          -8 140 277 callsubr
        </CharString>
        <CharString name="edotaccent">
          -84 220 622 rmoveto
          -92 -86 92 hlineto
          -106 -258 -66 callgsubr
          endchar
        </CharString>
        <CharString name="egrave">
          -84 197 516 142 callgsubr
          -21 -238 -66 callgsubr
          endchar
        </CharString>
        <CharString name="eight">
          40 callsubr
        </CharString>
        <CharString name="ellipsis">
          88 55 hmoveto
          92 107 -92 hlineto
          180 -107 rmoveto
          92 107 -92 hlineto
          180 -107 rmoveto
          92 107 -92 hlineto
          endchar
        </CharString>
        <CharString name="emacron">
          -84 283 608 230 callsubr
          -169 -272 -66 callgsubr
          endchar
        </CharString>
        <CharString name="emdash">
          65 263 vmoveto
          479 58 -479 hlineto
          endchar
        </CharString>
        <CharString name="endash">
          -44 20 263 rmoveto
          330 58 -330 hlineto
          endchar
        </CharString>
        <CharString name="eogonek">
          -84 114 278 callsubr
          -102 207 315 callsubr
          17 217 callsubr
          6 208 callsubr
        </CharString>
        <CharString name="equal">
          -24 30 366 rmoveto
          330 62 -330 hlineto
          -234 vmoveto
          330 62 -330 hlineto
          endchar
        </CharString>
        <CharString name="eth">
          -67 228 90 rmoveto
          333 callsubr
          233 -107 callsubr
          84 hlineto
          3 -18 1 -19 -19 vvcurveto
          61 272 rmoveto
          48 vlineto
          -89 -34 -11 14 -11 12 -12 12 rlinecurve
          -95 hlineto
          23 -19 21 -21 19 -23 -65 -25 rcurveline
          -48 vlineto
          92 35 22 -32 17 -37 12 -39 rlinecurve
          -93 -98 callsubr
          -255 -99 callgsubr
          99 -104 callsubr
          230 vlineto
          94 -29 80 -41 63 vhcurveto
          endchar
        </CharString>
        <CharString name="exclam">
          -229 50 622 rmoveto
          13 -426 rlineto
          59 hlineto
          13 426 rlineto
          -84 -622 rmoveto
          294 callgsubr
          endchar
        </CharString>
        <CharString name="exclamdown">
          -229 51 373 rmoveto
          294 callgsubr
          84 -622 rmoveto
          -13 426 rlineto
          -59 hlineto
          -13 -426 rlineto
          endchar
        </CharString>
        <CharString name="f">
          -217 192 605 rmoveto
          64 -60 vlineto
          -105 callsubr
          -105 -48 -59 48 -426 69 426 70 59 -70 89 -107 callsubr
          endchar
        </CharString>
        <CharString name="fi">
          -73 122 485 rmoveto
          236 callgsubr
          485 vlineto
          -69 184 rmoveto
          -64 69 64 vlineto
          endchar
        </CharString>
        <CharString name="five">
          130 callgsubr
        </CharString>
        <CharString name="fl">
          -73 227 669 rmoveto
          -184 -105 236 callgsubr
          669 vlineto
          endchar
        </CharString>
        <CharString name="florin">
          -86 279 605 rmoveto
          64 -67 vlineto
          -53 -20 -26 -53 -6 hvcurveto
          -13 -105 rlineto
          -73 -59 65 hlineto
          -59 -472 rlineto
          336 callsubr
          19 26 53 7 hvcurveto
          61 488 rlineto
          96 59 -88 hlineto
          11 89 rlineto
          26 3 2 5 26 hhcurveto
          endchar
        </CharString>
        <CharString name="four">
          197 callsubr
        </CharString>
        <CharString name="fraction">
          209 callsubr
        </CharString>
        <CharString name="g">
          -86 140 59 -52 callgsubr
          -84 -98 callgsubr
          -128 -59 149 -104 callsubr
          547 vlineto
          endchar
        </CharString>
        <CharString name="gbreve">
          -86 140 59 -45 callgsubr
          34 393 rmoveto
          -46 callsubr
          -84 -98 callgsubr
          -128 -59 149 -104 callsubr
          547 -69 vlineto
          14 158 72 callgsubr
        </CharString>
        <CharString name="germandbls">
          10 184 148 rmoveto
          -69 -99 callgsubr
          47 145 callgsubr
          -30 253 callsubr
          45 vlineto
          26 6 -88 callsubr
          15 hlineto
          43 25 23 42 hvcurveto
          68 -99 callsubr
          -160 -98 callsubr
          -510 68 495 vlineto
          26 6 6 26 vhcurveto
          121 hlineto
          26 5 -6 -26 hvcurveto
          -35 vlineto
          -22 -6 -3 -34 -46 -29 -24 -55 vhcurveto
          -65 -99 callgsubr
          30 -95 callgsubr
          -92 -98 callgsubr
          -9 -105 callgsubr
          59 vlineto
          endchar
        </CharString>
        <CharString name="grave">
          -14 203 643 296 callsubr
        </CharString>
        <CharString name="greater">
          -24 297 311 rmoveto
          -267 -88 rlineto
          -66 vlineto
          330 115 rlineto
          78 vlineto
          -330 115 rlineto
          -66 vlineto
          endchar
        </CharString>
        <CharString name="greaterequal">
          20 302 356 rmoveto
          -252 -90 rlineto
          -65 vlineto
          334 132 rlineto
          50 vlineto
          -334 125 rlineto
          -64 vlineto
          -336 vmoveto
          334 57 -334 hlineto
          endchar
        </CharString>
        <CharString name="guillemotleft">
          73 164 106 213 callsubr
          321 -156 213 callsubr
          endchar
        </CharString>
        <CharString name="guillemotright">
          73 241 262 214 callsubr
          321 156 214 callsubr
          endchar
        </CharString>
        <CharString name="guilsinglleft">
          -127 164 106 213 callsubr
          endchar
        </CharString>
        <CharString name="guilsinglright">
          -125 241 262 214 callsubr
          endchar
        </CharString>
        <CharString name="h">
          -81 169 485 rmoveto
          235 callgsubr
          217 -69 -669 17 callgsubr
        </CharString>
        <CharString name="hungarumlaut">
          -14 174 516 rmoveto
          54 hlineto
          98 127 rlineto
          -74 hlineto
          -178 -127 rmoveto
          54 hlineto
          98 127 rlineto
          -74 hlineto
          endchar
        </CharString>
        <CharString name="hyphen">
          325 callgsubr
        </CharString>
        <CharString name="i">
          163 callgsubr
          -2 589 rmoveto
          73 81 -73 hlineto
          endchar
        </CharString>
        <CharString name="iacute">
          163 callgsubr
          516 vmoveto
          203 callsubr
          endchar
        </CharString>
        <CharString name="icircumflex">
          163 callgsubr
          -93 516 225 callsubr
        </CharString>
        <CharString name="idieresis">
          163 callgsubr
          -97 541 219 callsubr
          endchar
        </CharString>
        <CharString name="igrave">
          163 callgsubr
          -13 643 296 callsubr
        </CharString>
        <CharString name="imacron">
          163 callgsubr
          -83 550 289 callsubr
        </CharString>
        <CharString name="infinity">
          172 472 301 rmoveto
          -26 -3 -9 -29 vhcurveto
          -30 hlineto
          -21 -9 5 14 -10 hvcurveto
          -46 59 38 61 rlineto
          16 12 7 10 17 hhcurveto
          42 hlineto
          29 3 -10 -25 hvcurveto
          -246 -100 rmoveto
          -15 -10 -19 -15 -20 hhcurveto
          -31 hlineto
          -29 -3 9 26 hvcurveto
          94 vlineto
          25 3 10 29 vhcurveto
          20 hlineto
          28 9 -10 -22 16 hvcurveto
          39 -54 rlineto
          154 140 rmoveto
          -58 -8 -12 -50 -34 hvcurveto
          -20 -30 -28 38 rlineto
          43 -32 -13 11 -55 hhcurveto
          -37 hlineto
          -55 -22 -30 -45 hvcurveto
          -121 vlineto
          -47 22 -29 55 vhcurveto
          30 hlineto
          72 19 13 63 40 hvcurveto
          4 7 21 -29 rlineto
          -46 33 17 -8 56 hhcurveto
          39 hlineto
          56 22 29 47 hvcurveto
          121 vlineto
          45 -22 30 -56 vhcurveto
          endchar
        </CharString>
        <CharString name="integral">
          -171 156 639 190 callgsubr
          46 64 -67 -98 callsubr
          -676 vlineto
          336 callsubr
          26 26 53 hvcurveto
          endchar
        </CharString>
        <CharString name="iogonek">
          -255 116 670 rmoveto
          -73 -81 73 hlineto
          -62 -747 301 callgsubr
          -485 3 -25 100 callgsubr
          hlineto
          endchar
        </CharString>
        <CharString name="itfLogo">
          1234 147 hmoveto
          214 callgsubr
          236 -634 rmoveto
          214 callgsubr
          236 -634 rmoveto
          214 callgsubr
          -410 vmoveto
          196 185 -196 hlineto
          endchar
        </CharString>
        <CharString name="itfStar">
          258 663 452 rmoveto
          -28 -200 -6 -2 -34 hvcurveto
          -66 246 -8 -27 -53 -188 -8 -31 rlinecurve
          -261 8 25 -15 168 -108 28 -17 rlinecurve
          -96 -247 24 20 152 128 29 20 rlinecurve
          204 -168 -11 28 -71 189 -12 30 rlinecurve
          endchar
        </CharString>
        <CharString name="j">
          -255 45 -51 -68 callgsubr
          -14 -59 35 -104 callsubr
          547 -69 vlineto
          -2 104 rmoveto
          73 81 -73 hlineto
          endchar
        </CharString>
        <CharString name="k">
          -89 45 hmoveto
          69 669 -69 hlineto
          275 -184 279 callsubr
        </CharString>
        <CharString name="l">
          -255 114 hmoveto
          335 callsubr
          endchar
        </CharString>
        <CharString name="lacute">
          -255 48 700 rmoveto
          203 callsubr
          -12 -827 rmoveto
          335 callsubr
          endchar
        </CharString>
        <CharString name="lcaron">
          -228 114 hmoveto
          335 callsubr
          114 509 rmoveto
          27 hlineto
          35 121 rlineto
          39 -62 vlineto
          endchar
        </CharString>
        <CharString name="less">
          -24 360 399 rmoveto
          66 vlineto
          -330 -115 rlineto
          -78 vlineto
          330 -115 rlineto
          66 vlineto
          -267 88 rlineto
          endchar
        </CharString>
        <CharString name="lessequal">
          20 374 444 rmoveto
          64 vlineto
          -334 -125 rlineto
          -50 vlineto
          334 -132 rlineto
          65 vlineto
          -252 90 rlineto
          252 -191 rmoveto
          -334 -57 334 hlineto
          endchar
        </CharString>
        <CharString name="logicalnot">
          18 392 395 rmoveto
          -362 -68 303 -150 59 hlineto
          endchar
        </CharString>
        <CharString name="lozenge">
          32 232 70 rmoveto
          -112 241 112 242 111 -242 rlineto
          -83 311 rmoveto
          -57 hlineto
          -155 -311 155 -311 rlineto
          57 hlineto
          155 311 rlineto
          endchar
        </CharString>
        <CharString name="lslash">
          -245 210 442 rmoveto
          -91 -42 rlineto
          269 -69 -301 vlineto
          -78 -36 rlineto
          -59 vlineto
          78 36 rlineto
          -309 69 341 vlineto
          91 42 rlineto
          endchar
        </CharString>
        <CharString name="m">
          88 343 485 rmoveto
          -31 -23 -11 -29 -7 hvcurveto
          27 -11 -24 13 -38 hhcurveto
          -40 hlineto
          235 callgsubr
          33 -69 -485 69 390 vlineto
          27 10 9 24 vhcurveto
          40 hlineto
          26 5 -5 -26 hvcurveto
          -395 17 callgsubr
        </CharString>
        <CharString name="macron">
          -14 82 550 289 callsubr
        </CharString>
        <CharString name="minus">
          -34 25 281 344 callsubr
          endchar
        </CharString>
        <CharString name="multiply">
          -64 325 416 rmoveto
          -45 45 -105 -105 -105 105 -45 -45 105 -105 -105 -105 45 -45 105 105 105 -105 45 45 -105 105 rlineto
          endchar
        </CharString>
        <CharString name="n">
          -81 169 485 rmoveto
          235 callgsubr
          33 -69 -485 17 callgsubr
        </CharString>
        <CharString name="nacute">
          -81 296 643 71 callgsubr
          -29 -31 rmoveto
          235 callgsubr
          33 -69 -485 17 callgsubr
        </CharString>
        <CharString name="ncaron">
          -81 204 516 15 callsubr
          52 -31 rmoveto
          235 callgsubr
          33 -69 -485 17 callgsubr
        </CharString>
        <CharString name="nine">
          82 callgsubr
        </CharString>
        <CharString name="notequal">
          60 424 364 rmoveto
          58 -109 vlineto
          44 94 rlineto
          -55 hlineto
          -44 -94 rlineto
          -210 -58 184 hlineto
          -46 -98 rlineto
          -138 -58 111 hlineto
          -46 -100 rlineto
          55 hlineto
          46 100 rlineto
          208 58 -181 hlineto
          46 98 rlineto
          endchar
        </CharString>
        <CharString name="ntilde">
          -81 96 545 rmoveto
          180 callgsubr
          28 callsubr
          vlineto
          73 -49 rmoveto
          235 callgsubr
          33 -69 -485 17 callgsubr
        </CharString>
        <CharString name="numbersign">
          34 268 224 rmoveto
          -117 hlineto
          29 174 rlineto
          117 hlineto
          121 hmoveto
          58 -48 vlineto
          27 166 rlineto
          -63 hlineto
          -27 -166 rlineto
          -117 hlineto
          27 166 rlineto
          -63 hlineto
          -27 -166 rlineto
          -67 -58 57 hlineto
          -29 -174 rlineto
          -58 -58 48 hlineto
          -27 -166 rlineto
          63 hlineto
          27 166 rlineto
          117 hlineto
          -27 -166 rlineto
          63 hlineto
          27 166 rlineto
          67 58 -57 hlineto
          29 174 rlineto
          endchar
        </CharString>
        <CharString name="o">
          -74 232 90 -58 callgsubr
          endchar
        </CharString>
        <CharString name="oacute">
          -74 294 643 71 callgsubr
          36 -426 -58 callgsubr
          endchar
        </CharString>
        <CharString name="ocircumflex">
          -74 167 600 54 callgsubr
          117 -426 -58 callgsubr
          endchar
        </CharString>
        <CharString name="odieresis">
          -74 125 625 273 callsubr
          107 -451 -58 callgsubr
          -8 140 277 callsubr
        </CharString>
        <CharString name="oe">
          104 288 278 callsubr
          -181 -189 rmoveto
          -23 -2 -10 -7 -22 hhcurveto
          -40 -77 callgsubr
          40 hlineto
          22 10 -8 -22 2 hvcurveto
          88 89 rmoveto
          -29 -21 -20 -18 -5 hvcurveto
          18 -5 -20 20 -32 hhcurveto
          -71 -78 callsubr
          71 hlineto
          32 20 20 18 5 hvcurveto
          -18 5 21 -20 29 hhcurveto
          80 208 callsubr
        </CharString>
        <CharString name="ogonek">
          -14 206 -158 rmoveto
          96 callgsubr
          88 -66 -35 100 callgsubr
          hlineto
          endchar
        </CharString>
        <CharString name="ograve">
          -74 198 516 142 callgsubr
          96 -426 -58 callgsubr
          endchar
        </CharString>
        <CharString name="ohungarumlaut">
          -74 247 516 134 callgsubr
          85 -426 -58 callgsubr
          endchar
        </CharString>
        <CharString name="omacron">
          -74 287 608 230 callsubr
          -55 -460 -58 callgsubr
          endchar
        </CharString>
        <CharString name="one">
          303 callgsubr
        </CharString>
        <CharString name="onesuperior">
          -288 96 622 rmoveto
          -85 -42 37 -300 48 hlineto
          endchar
        </CharString>
        <CharString name="ordfeminine">
          -178 96 323 rmoveto
          -19 -4 4 18 hvcurveto
          213 vlineto
          19 4 3 19 vhcurveto
          37 hlineto
          17 7 -7 -19 hvcurveto
          -206 vlineto
          -19 -7 -6 -17 vhcurveto
          24 299 rmoveto
          -24 vlineto
          17 -6 -14 7 -19 hhcurveto
          -37 hlineto
          324 callsubr
          37 hlineto
          19 14 7 17 6 hvcurveto
          -24 49 342 vlineto
          endchar
        </CharString>
        <CharString name="ordmasculine">
          -188 152 344 rmoveto
          -18 -4 -4 -19 vhcurveto
          -33 hlineto
          -19 -3 4 18 hvcurveto
          214 vlineto
          19 3 3 19 vhcurveto
          33 hlineto
          19 4 -3 -19 hvcurveto
          -70 64 rmoveto
          324 callsubr
          62 hlineto
          37 19 18 38 hvcurveto
          230 vlineto
          38 -19 18 -37 vhcurveto
          endchar
        </CharString>
        <CharString name="oslash">
          -64 239 85 rmoveto
          -27 -5 -5 -27 vhcurveto
          -64 hlineto
          -9 -6 1 1 -5 hvcurveto
          116 287 rlineto
          -128 58 rmoveto
          27 5 5 27 vhcurveto
          64 hlineto
          9 6 -1 -1 5 hvcurveto
          -116 -287 rlineto
          194 362 rmoveto
          -48 hlineto
          -9 -22 rlineto
          1 -7 -7 1 -8 hhcurveto
          290 callgsubr
          -327 vlineto
          -25 6 -19 11 -13 vhcurveto
          -17 -42 rlineto
          48 hlineto
          9 22 rlineto
          -1 7 7 -1 8 hhcurveto
          102 -104 callsubr
          327 vlineto
          25 -6 19 -11 13 vhcurveto
          endchar
        </CharString>
        <CharString name="otilde">
          -74 100 545 rmoveto
          180 callgsubr
          28 callsubr
          vlineto
          132 -444 -58 callgsubr
          endchar
        </CharString>
        <CharString name="p">
          191 callsubr
          33 -69 -626 246 callsubr
        </CharString>
        <CharString name="paragraph">
          76 275 622 rmoveto
          -141 -98 callsubr
          -234 -99 callgsubr
          73 -371 68 hlineto
          82 763 rmoveto
          -763 68 763 vlineto
          endchar
        </CharString>
        <CharString name="parenleft">
          -169 49 271 rmoveto
          -285 63 -164 143 vhcurveto
          16 57 hlineto
          -14 1 rlineto
          -111 8 -30 164 218 vvcurveto
          73 vlineto
          218 30 164 111 8 vhcurveto
          14 1 rlineto
          57 -16 vlineto
          -143 -63 -164 -285 hvcurveto
          endchar
        </CharString>
        <CharString name="parenright">
          -169 193 342 rmoveto
          285 -63 164 -143 vhcurveto
          -16 -57 hlineto
          14 -1 rlineto
          111 -8 30 -164 -218 vvcurveto
          -73 vlineto
          -218 -30 -164 -111 -8 vhcurveto
          -14 -1 rlineto
          -57 16 vlineto
          143 63 164 285 hvcurveto
          endchar
        </CharString>
        <CharString name="percent">
          159 27 callsubr
          endchar
        </CharString>
        <CharString name="period">
          -272 30 hmoveto
          294 callgsubr
          endchar
        </CharString>
        <CharString name="periodcentered">
          -212 30 259 rmoveto
          294 callgsubr
          endchar
        </CharString>
        <CharString name="perthousand">
          406 27 callsubr
          337 -367 rmoveto
          49 -21 22 -46 vhcurveto
          -57 hlineto
          -46 -21 -22 -49 hvcurveto
          -184 vlineto
          -49 21 -22 46 vhcurveto
          57 hlineto
          46 21 22 49 hvcurveto
          -56 9 rmoveto
          -25 -3 -5 -25 vhcurveto
          -23 hlineto
          -25 -3 5 25 hvcurveto
          166 vlineto
          25 3 5 25 vhcurveto
          23 hlineto
          25 3 -5 -25 hvcurveto
          endchar
        </CharString>
        <CharString name="pi">
          -14 400 485 rmoveto
          -333 -390 hlineto
          -103 callgsubr
          -36 -64 57 -104 callsubr
          347 126 -426 68 426 70 vlineto
          endchar
        </CharString>
        <CharString name="plus">
          -34 355 341 rmoveto
          -130 150 -70 -150 -130 -60 130 -150 70 150 130 hlineto
          endchar
        </CharString>
        <CharString name="plusminus">
          -24 30 179 344 callsubr
          200 170 rmoveto
          80 -70 -80 -130 -60 130 -80 70 80 130 60 vlineto
          endchar
        </CharString>
        <CharString name="product">
          -6 70 622 rmoveto
          -527 -98 callgsubr
          -29 -64 50 -104 callsubr
          484 146 -563 68 622 vlineto
          endchar
        </CharString>
        <CharString name="q">
          -86 140 59 -52 callgsubr
          -174 69 626 vlineto
          endchar
        </CharString>
        <CharString name="question">
          -106 93 hmoveto
          294 callgsubr
          6 510 rmoveto
          -56 -23 -30 -47 hvcurveto
          -86 69 72 vlineto
          24 3 9 26 vhcurveto
          48 hlineto
          25 3 -9 -24 hvcurveto
          -177 vlineto
          -24 -3 -8 -25 vhcurveto
          -66 hlineto
          6 -126 rlineto
          57 hlineto
          3 67 rlineto
          18 hlineto
          56 23 31 47 hvcurveto
          204 vlineto
          47 -23 30 -56 vhcurveto
          endchar
        </CharString>
        <CharString name="questiondown">
          -106 190 485 rmoveto
          -82 -112 82 hlineto
          4 -347 rmoveto
          -72 vlineto
          -24 -3 -9 -26 vhcurveto
          -48 hlineto
          -25 -3 9 24 hvcurveto
          177 vlineto
          24 3 8 25 vhcurveto
          66 hlineto
          -6 126 rlineto
          -57 hlineto
          -3 -67 rlineto
          -18 hlineto
          -56 -23 -31 -47 hvcurveto
          -204 vlineto
          -47 23 -30 56 vhcurveto
          85 hlineto
          56 23 30 47 hvcurveto
          86 vlineto
          endchar
        </CharString>
        <CharString name="quotedbl">
          -160 35 622 rmoveto
          -212 64 212 vlineto
          56 hmoveto
          -212 64 212 vlineto
          endchar
        </CharString>
        <CharString name="quotedblbase">
          -140 162 -137 rmoveto
          181 callgsubr
          -132 -249 rmoveto
          181 callgsubr
          endchar
        </CharString>
        <CharString name="quotedblleft">
          -140 317 callgsubr
          132 249 rmoveto
          -27 hlineto
          -55 -191 rlineto
          -58 82 vlineto
          endchar
        </CharString>
        <CharString name="quotedblright">
          -140 162 373 rmoveto
          181 callgsubr
          -132 -249 rmoveto
          181 callgsubr
          endchar
        </CharString>
        <CharString name="quoteleft">
          -272 317 callgsubr
          endchar
        </CharString>
        <CharString name="quoteright">
          -272 30 373 rmoveto
          181 callgsubr
          endchar
        </CharString>
        <CharString name="quotesinglbase">
          -272 30 -137 rmoveto
          181 callgsubr
          endchar
        </CharString>
        <CharString name="quotesingle">
          -275 35 622 rmoveto
          -212 69 212 vlineto
          endchar
        </CharString>
        <CharString name="r">
          -202 186 485 rmoveto
          -39 -24 -28 -28 -9 hvcurveto
          56 -69 -485 69 350 vlineto
          51 19 24 44 vhcurveto
          30 60 hlineto
          endchar
        </CharString>
        <CharString name="racute">
          -202 259 643 71 callgsubr
          -47 255 callsubr
        </CharString>
        <CharString name="rcaron">
          -202 170 516 15 callsubr
          31 255 callsubr
        </CharString>
        <CharString name="registered">
          -17 362 529 rmoveto
          100 -34 52 -78 vhcurveto
          -103 hlineto
          -78 -34 -52 -100 hvcurveto
          -39 vlineto
          -100 34 -47 78 vhcurveto
          103 hlineto
          78 34 47 100 hvcurveto
          -214 -114 rmoveto
          -60 -16 50 63 hvcurveto
          40 vlineto
          64 16 57 60 vhcurveto
          102 hlineto
          60 16 -57 -64 hvcurveto
          -40 vlineto
          -63 -16 -50 -60 vhcurveto
          -98 244 rmoveto
          -213 31 86 12 vlineto
          31 -86 rlineto
          32 hlineto
          -32 87 rlineto
          14 3 7 10 17 vvcurveto
          66 vlineto
          21 -10 9 -21 vhcurveto
          -93 vmoveto
          -5 -1 -1 -5 vhcurveto
          -27 73 27 hlineto
          5 1 -1 -6 hvcurveto
          endchar
        </CharString>
        <CharString name="ring">
          -14 295 588 rmoveto
          45 -21 20 -44 vhcurveto
          -60 hlineto
          -44 -21 -20 -45 hvcurveto
          -17 vlineto
          -45 21 -20 44 vhcurveto
          60 hlineto
          44 21 20 45 hvcurveto
          -51 6 rmoveto
          -22 -3 -5 -25 vhcurveto
          -32 hlineto
          -25 -3 5 22 hvcurveto
          5 vlineto
          22 3 5 25 vhcurveto
          32 hlineto
          25 3 -5 -22 hvcurveto
          endchar
        </CharString>
        <CharString name="s">
          -117 194 89 -46 callgsubr
        </CharString>
        <CharString name="sacute">
          -117 125 516 rmoveto
          203 callsubr
          -9 -554 -46 callgsubr
        </CharString>
        <CharString name="scaron">
          -117 103 516 rmoveto
          87 hlineto
          85 127 rlineto
          -76 hlineto
          -53 -84 -52 84 rlineto
          -76 hlineto
          176 -554 -46 callgsubr
        </CharString>
        <CharString name="section">
          419 410 242 -54 callgsubr
          91 -107 callsubr
          87 -95 callgsubr
          -91 vlineto
          224 callgsubr
          212 -54 callgsubr
          93 135 callgsubr
          -38 69 272 callgsubr
          -88 -98 callsubr
          -115 vlineto
          -17 3 -14 5 -11 vhcurveto
          -36 -9 -12 -33 -45 vvcurveto
          -83 -99 callgsubr
          68 -95 callgsubr
          -93 -98 callgsubr
          -46 -105 callgsubr
          38 -69 272 callsubr
          88 -104 callsubr
          115 vlineto
          17 -3 14 -5 11 vhcurveto
          36 9 12 33 45 vvcurveto
          83 -51 callgsubr
        </CharString>
        <CharString name="semicolon">
          -272 30 373 rmoveto
          294 callgsubr
          -622 vmoveto
          181 callgsubr
          endchar
        </CharString>
        <CharString name="seven">
          246 callgsubr
        </CharString>
        <CharString name="six">
          87 callgsubr
        </CharString>
        <CharString name="slash">
          209 callsubr
        </CharString>
        <CharString name="space">
          -284 endchar
        </CharString>
        <CharString name="sterling">
          -59 127 59 rmoveto
          24 15 2 30 38 vvcurveto
          131 127 59 -127 200 345 callgsubr
          -95 callgsubr
          -80 68 91 -99 callsubr
          -84 -98 callsubr
          -211 -49 -59 49 -116 vlineto
          -68 -14 -30 -35 vhcurveto
          -59 295 59 vlineto
          endchar
        </CharString>
        <CharString name="t">
          -217 187 426 228 callsubr
        </CharString>
        <CharString name="tcaron">
          -217 118 564 rmoveto
          -69 -79 -44 -59 44 269 callsubr
          59 64 -38 -105 callgsubr
          331 69 59 -69 vlineto
          42 168 rmoveto
          -140 27 vlineto
          50 101 rlineto
          39 vlineto
          endchar
        </CharString>
        <CharString name="thorn">
          191 callsubr
          217 -69 -810 246 callsubr
        </CharString>
        <CharString name="three">
          62 callgsubr
        </CharString>
        <CharString name="threesuperior">
          -218 64 563 rmoveto
          14 3 3 14 vhcurveto
          24 hlineto
          14 3 -3 -14 hvcurveto
          -71 vlineto
          -14 -3 -3 -14 vhcurveto
          -30 -43 30 hlineto
          14 3 -3 -14 hvcurveto
          -75 vlineto
          -15 -3 -3 -14 vhcurveto
          -24 hlineto
          -14 -3 3 15 hvcurveto
          45 -48 -62 vlineto
          -29 15 -14 29 vhcurveto
          66 hlineto
          29 15 14 29 hvcurveto
          105 vlineto
          16 -8 8 -13 2 vhcurveto
          13 1 8 9 16 vvcurveto
          99 vlineto
          29 -15 14 -29 vhcurveto
          -66 hlineto
          -29 -15 -14 -29 hvcurveto
          -62 48 vlineto
          endchar
        </CharString>
        <CharString name="tilde">
          -14 249 534 rmoveto
          28 callsubr
          11 vlineto
          180 callgsubr
          endchar
        </CharString>
        <CharString name="trademark">
          184 233 622 rmoveto
          -228 -59 80 -263 68 263 80 hlineto
          247 59 rmoveto
          -60 -186 -62 186 rlineto
          -87 -322 63 222 hlineto
          54 -164 rlineto
          65 hlineto
          52 163 rlineto
          -221 63 322 vlineto
          endchar
        </CharString>
        <CharString name="two">
          120 callgsubr
        </CharString>
        <CharString name="twosuperior">
          61 563 rmoveto
          14 3 3 14 vhcurveto
          20 hlineto
          14 3 -3 -14 hvcurveto
          -12 vlineto
          -27 -3 -20 -12 -22 vhcurveto
          -86 -158 rlineto
          -44 152 45 -98 vlineto
          79 146 rlineto
          13 25 3 25 27 vvcurveto
          31 vlineto
          29 -14 14 -29 vhcurveto
          -63 hlineto
          -29 -14 -14 -29 hvcurveto
          -67 47 vlineto
          endchar
        </CharString>
        <CharString name="u">
          -81 219 485 -32 callsubr
          endchar
        </CharString>
        <CharString name="uacute">
          -81 297 643 71 callgsubr
          20 -31 -32 callsubr
          endchar
        </CharString>
        <CharString name="ucircumflex">
          -86 161 600 54 callgsubr
          110 -31 -32 callsubr
          endchar
        </CharString>
        <CharString name="udieresis">
          -86 117 625 273 callsubr
          102 -56 -32 callsubr
          -83 140 277 callsubr
        </CharString>
        <CharString name="ugrave">
          -81 200 516 142 callgsubr
          81 -31 -32 callsubr
          endchar
        </CharString>
        <CharString name="uhungarumlaut">
          -81 228 516 134 callgsubr
          91 -31 -32 callsubr
          endchar
        </CharString>
        <CharString name="umacron">
          -81 283 608 230 callsubr
          -64 -65 -32 callsubr
          endchar
        </CharString>
        <CharString name="underscore">
          60 -103 vmoveto
          474 59 -474 hlineto
          endchar
        </CharString>
        <CharString name="uni00A0">
          -284 endchar
        </CharString>
        <CharString name="uni00AD">
          325 callgsubr
        </CharString>
        <CharString name="uni00B5">
          -75 214 485 rmoveto
          -390 vlineto
          -27 -10 -9 -24 160 callgsubr
          -69 -626 69 141 10 vlineto
          18 callsubr
          -33 69 485 vlineto
          endchar
        </CharString>
        <CharString name="uni0122">
          -64 140 23 callsubr
          165 499 rmoveto
          95 -99 callsubr
          -97 hlineto
          53 callsubr
          vlineto
          endchar
        </CharString>
        <CharString name="uni0123">
          -86 210 676 rmoveto
          -27 hlineto
          -53 -121 rlineto
          -39 80 vlineto
          -70 -457 -52 callgsubr
          -84 -98 callgsubr
          -128 -59 149 -104 callsubr
          547 vlineto
          endchar
        </CharString>
        <CharString name="uni0136">
          -69 55 hmoveto
          68 622 -68 hlineto
          86 -833 rmoveto
          27 hlineto
          53 121 rlineto
          39 -80 vlineto
          194 673 rmoveto
          284 callsubr
        </CharString>
        <CharString name="uni0137">
          -89 45 hmoveto
          69 669 -69 hlineto
          85 -880 rmoveto
          27 hlineto
          53 121 rlineto
          39 -80 vlineto
          190 536 279 callsubr
        </CharString>
        <CharString name="uni013B">
          -143 119 23 callsubr
          4 110 239 callgsubr
        </CharString>
        <CharString name="uni013C">
          -255 40 23 callsubr
          74 51 rmoveto
          335 callsubr
          endchar
        </CharString>
        <CharString name="uni0145">
          -37 139 23 callsubr
          120 673 114 callgsubr
        </CharString>
        <CharString name="uni0146">
          -81 122 23 callsubr
          47 536 rmoveto
          235 callgsubr
          33 -69 -485 17 callgsubr
        </CharString>
        <CharString name="uni0156">
          -50 148 23 callsubr
          -25 614 rmoveto
          93 -95 callgsubr
          -182 299 callsubr
          130 -58 rmoveto
          42 5 20 26 47 vvcurveto
          204 -99 callsubr
          -181 -622 68 260 59 hlineto
          91 -260 rlineto
          74 hlineto
          endchar
        </CharString>
        <CharString name="uni0157">
          -202 42 23 callsubr
          144 536 rmoveto
          -39 -24 -28 -28 -9 hvcurveto
          56 -69 -485 69 350 vlineto
          51 19 24 44 vhcurveto
          30 60 hlineto
          endchar
        </CharString>
        <CharString name="uni015E">
          -87 127 23 callsubr
          91 141 -48 callsubr
        </CharString>
        <CharString name="uni015F">
          -117 108 23 callsubr
          86 140 -46 callgsubr
        </CharString>
        <CharString name="uni0162">
          -136 97 23 callsubr
          176 673 216 callgsubr
        </CharString>
        <CharString name="uni0163">
          -136 100 23 callsubr
          173 673 216 callgsubr
        </CharString>
        <CharString name="uni0218">
          -87 126 23 callsubr
          92 141 -48 callsubr
        </CharString>
        <CharString name="uni0219">
          -117 125 23 callsubr
          69 140 -46 callgsubr
        </CharString>
        <CharString name="uni021A">
          -136 101 23 callsubr
          172 673 216 callgsubr
        </CharString>
        <CharString name="uni021B">
          -217 78 23 callsubr
          109 477 228 callsubr
        </CharString>
        <CharString name="uni02C9">
          -14 82 550 289 callsubr
        </CharString>
        <CharString name="uni0901">
          -414 -124 761 rmoveto
          68 69 -68 hlineto
          -94 -85 215 callgsubr
        </CharString>
        <CharString name="uni0902">
          -414 -130 727 -39 callgsubr
          endchar
        </CharString>
        <CharString name="uni0902.aMatraI">
          -414 20 657 -39 callgsubr
          endchar
        </CharString>
        <CharString name="uni0903">
          -261 -95 413 -39 callgsubr
          -436 vmoveto
          73 86 -73 hlineto
          endchar
        </CharString>
        <CharString name="uni0905">
          86 520 622 rmoveto
          -143 -275 -143 2 hlineto
          -33 callsubr
          75 vlineto
          endchar
        </CharString>
        <CharString name="uni0906">
          266 699 622 rmoveto
          -322 -41 callgsubr
          endchar
        </CharString>
        <CharString name="uni0907">
          -74 284 200 callsubr
          76 59 -380 34 callsubr
          endchar
        </CharString>
        <CharString name="uni0908">
          -74 284 200 callsubr
          76 59 -76 62 vlineto
          187 callgsubr
          -55 hlineto
          -53 -26 -25 -53 hvcurveto
          -73 -235 34 callsubr
          endchar
        </CharString>
        <CharString name="uni09080902">
          -74 284 724 rmoveto
          187 callgsubr
          -55 hlineto
          -53 -26 -25 -53 hvcurveto
          -113 -235 34 callsubr
          149 137 76 59 -76 hlineto
          30 97 293 callgsubr
        </CharString>
        <CharString name="uni0909">
          -90 344 622 rmoveto
          -364 141 callgsubr
          232 162 callgsubr
          130 -53 callsubr
          83 hlineto
          endchar
        </CharString>
        <CharString name="uni090A">
          42 476 622 rmoveto
          -496 141 callgsubr
          219 57 189 callsubr
          -177 -98 callgsubr
          -22 -59 43 -104 callsubr
          199 -99 callsubr
          -115 2 hlineto
          23 2 14 16 29 vvcurveto
          130 -53 callsubr
          215 hlineto
          endchar
        </CharString>
        <CharString name="uni090B">
          209 284 callgsubr
          -8 -8 -15 vhcurveto
          -18 hlineto
          -17 -8 10 22 hvcurveto
          -137 268 rmoveto
          326 59 -663 -59 269 -300 -8 hlineto
          -77 154 rlineto
          -16 callgsubr
          23 -203 68 203 173 hlineto
          22 6 -3 -24 hvcurveto
          -85 vlineto
          -24 -3 -8 -25 vhcurveto
          -2 hlineto
          -26 -3 8 24 hvcurveto
          48 -68 -61 vlineto
          -44 22 -34 48 vhcurveto
          47 hlineto
          56 23 30 48 hvcurveto
          105 vlineto
          35 -11 14 -20 9 vhcurveto
          5 vlineto
          22 8 10 18 56 vvcurveto
          79 vlineto
          48 -23 30 -56 vhcurveto
          -44 316 callsubr
          -81 hlineto
          endchar
        </CharString>
        <CharString name="uni090C">
          74 440 34 rmoveto
          529 68 59 -528 -59 391 -78 -80 vlineto
          -96 callgsubr
          -206 69 206 vlineto
          26 5 5 26 vhcurveto
          63 -333 -3 hlineto
          -51 -25 -83 callsubr
          -58 94 callsubr
          endchar
        </CharString>
        <CharString name="uni090D">
          -37 99 791 rmoveto
          -64 -40 hlineto
          105 callgsubr
          298 -123 rmoveto
          -417 -59 75 -484 hlineto
          12 callsubr
        </CharString>
        <CharString name="uni090E">
          -37 397 622 rmoveto
          -65 227 callsubr
          -283 -59 75 -484 vlineto
          12 callsubr
        </CharString>
        <CharString name="uni090F">
          -37 397 622 rmoveto
          -417 -59 75 -484 hlineto
          12 callsubr
        </CharString>
        <CharString name="uni0910">
          -37 397 622 rmoveto
          -75 179 callgsubr
          -269 -59 75 -484 hlineto
          12 callsubr
        </CharString>
        <CharString name="uni0911">
          266 699 622 rmoveto
          -322 -41 callgsubr
          -44 228 rmoveto
          -40 vlineto
          105 callgsubr
          46 vlineto
          endchar
        </CharString>
        <CharString name="uni0912">
          265 699 622 rmoveto
          -75 227 callsubr
          -178 -275 -143 2 vlineto
          -38 callsubr
          endchar
        </CharString>
        <CharString name="uni0913">
          265 699 622 rmoveto
          -73 179 callgsubr
          -176 -41 callgsubr
          endchar
        </CharString>
        <CharString name="uni0914">
          266 699 622 rmoveto
          -78 hlineto
          -45 191 122 callgsubr
          140 -132 32 -30 23 -19 13 -10 rlinecurve
          -166 -41 callgsubr
          endchar
        </CharString>
        <CharString name="uni0915">
          93 527 305 callsubr
          -547 -59 239 -392 vlineto
          -26 -8 -8 -26 vhcurveto
          -40 hlineto
          -26 -5 5 26 hvcurveto
          227 vlineto
          26 5 5 26 vhcurveto
          34 59 -55 hlineto
          -53 -26 -26 -53 hvcurveto
          -249 vlineto
          -53 26 -26 53 vhcurveto
          -101 callgsubr
        </CharString>
        <CharString name="uni0915093C">
          93 52 -56 -39 callgsubr
          475 533 rmoveto
          59 -547 -59 239 -392 vlineto
          -26 -8 -8 -26 vhcurveto
          -40 hlineto
          -26 -5 5 26 hvcurveto
          227 vlineto
          26 5 5 26 vhcurveto
          34 59 -55 hlineto
          -53 -26 -26 -53 hvcurveto
          -249 vlineto
          -53 26 -26 53 vhcurveto
          -101 callgsubr
        </CharString>
        <CharString name="uni0915093C094D">
          9 98 -86 -39 callgsubr
          222 455 123 callsubr
          155 59 -463 -59 239 -392 vlineto
          -64 callgsubr
          14 11 3 6 7 hvcurveto
          -87 69 362 -29 callsubr
          140 59 hlineto
          endchar
        </CharString>
        <CharString name="uni0915093C094D0915093C">
          426 85 -87 -39 callgsubr
          340 -86 -39 callgsubr
          127 172 rmoveto
          -80 callgsubr
          -40 -105 callgsubr
          227 -107 callsubr
          34 59 -192 124 callgsubr
          264 vlineto
          308 hmoveto
          59 -880 -59 239 -392 vlineto
          -64 callgsubr
          14 11 3 6 7 hvcurveto
          -87 69 392 -29 callsubr
          61 hlineto
          -3 -9 -2 -10 -10 vvcurveto
          -240 -99 callgsubr
          -101 callgsubr
        </CharString>
        <CharString name="uni0915093C094D0924">
          310 98 -86 -39 callgsubr
          499 455 rmoveto
          -277 hlineto
          -56 callsubr
          117 309 vlineto
          143 callsubr
          -761 -59 239 -392 hlineto
          -64 callgsubr
          14 11 3 6 7 hvcurveto
          -87 69 362 -29 callsubr
          72 hlineto
          -51 callsubr
          -297 -9 callsubr
          272 251 callsubr
          -396 242 callsubr
        </CharString>
        <CharString name="uni0915093C094D092B">
          441 98 -86 -39 callgsubr
          469 63 callgsubr
          482 108 rmoveto
          59 -895 -59 239 -392 vlineto
          -64 callgsubr
          14 11 3 6 7 hvcurveto
          -87 69 362 -29 callsubr
          71 -239 hlineto
          -106 callgsubr
          -101 callgsubr
        </CharString>
        <CharString name="uni0915093C094D092B093C">
          441 98 -86 -39 callgsubr
          351 -86 -39 callgsubr
          118 63 callgsubr
          482 108 rmoveto
          59 -895 -59 239 -392 vlineto
          -64 callgsubr
          14 11 3 6 7 hvcurveto
          -87 69 362 -29 callsubr
          71 -239 hlineto
          -106 callgsubr
          -101 callgsubr
        </CharString>
        <CharString name="uni0915093C094D092C">
          313 98 -86 -39 callgsubr
          389 426 rmoveto
          76 59 -243 124 callgsubr
          315 -238 vlineto
          182 callgsubr
          -767 -59 239 -392 hlineto
          -64 callgsubr
          14 11 3 6 7 hvcurveto
          -87 69 392 -29 callsubr
          72 hlineto
          -51 callsubr
          262 callsubr
        </CharString>
        <CharString name="uni0915093C094D092E">
          463 98 -86 -39 callgsubr
          655 432 66 callgsubr
          -365 -75 callsubr
          -251 59 rmoveto
          -56 callsubr
          140 283 -131 vlineto
          326 190 rmoveto
          -917 -59 239 -392 hlineto
          -64 callgsubr
          14 11 3 6 7 hvcurveto
          -87 69 339 -29 callsubr
          72 72 callsubr
        </CharString>
        <CharString name="uni0915093C094D0930">
          93 157 -133 -39 callgsubr
          370 610 50 callgsubr
        </CharString>
        <CharString name="uni0915093C094D0930094D">
          -2 164 -128 -39 callgsubr
          298 605 rmoveto
          59 -482 -59 239 -362 vlineto
          -80 callgsubr
          -40 -16 callsubr
          362 -29 callsubr
          140 59 310 callsubr
          117 vlineto
          endchar
        </CharString>
        <CharString name="uni0915094D">
          9 320 455 123 callsubr
          155 59 -463 -59 239 -392 vlineto
          -64 callgsubr
          14 11 3 6 7 hvcurveto
          -87 69 362 -29 callsubr
          140 59 hlineto
          endchar
        </CharString>
        <CharString name="uni0915094D0915">
          426 552 308 callsubr
          227 -107 callsubr
          34 59 -192 124 callgsubr
          264 vlineto
          308 hmoveto
          59 -880 -59 239 -392 vlineto
          -64 callgsubr
          14 11 3 6 7 hvcurveto
          -87 69 392 -29 callsubr
          61 hlineto
          -3 -9 -2 -10 -10 vvcurveto
          -240 -99 callgsubr
          -101 callgsubr
        </CharString>
        <CharString name="uni0915094D0916">
          515 528 336 -68 callgsubr
          -35 150 310 callsubr
          117 209 189 callsubr
          421 90 rmoveto
          -969 -59 239 -392 hlineto
          -64 callgsubr
          14 11 3 6 7 hvcurveto
          -87 69 362 -29 callsubr
          71 -317 0 callgsubr
        </CharString>
        <CharString name="uni0915094D091A">
          297 587 171 rmoveto
          -80 callgsubr
          -60 -105 callgsubr
          197 vlineto
          26 5 4 27 1 vhcurveto
          40 59 -214 hlineto
          -56 callsubr
          117 299 vlineto
          143 callsubr
          -751 -59 239 -392 hlineto
          -64 callgsubr
          14 11 3 6 7 hvcurveto
          -87 69 362 -29 callsubr
          79 252 callsubr
          -213 -99 callgsubr
          83 -92 callsubr
        </CharString>
        <CharString name="uni0915094D091C">
          424 714 485 rmoveto
          70 callgsubr
          -142 vlineto
          -56 callsubr
          87 426 vlineto
          143 callsubr
          -878 -59 239 -392 hlineto
          -64 callgsubr
          14 11 3 6 7 hvcurveto
          -87 69 392 -29 callsubr
          71 74 callgsubr
        </CharString>
        <CharString name="uni0915094D091F">
          268 320 485 rmoveto
          -56 callsubr
          87 263 -78 vlineto
          69 -59 rmoveto
          137 82 59 -722 -59 239 -392 vlineto
          -64 callgsubr
          14 11 3 6 7 hvcurveto
          -87 69 392 -29 callsubr
          72 hlineto
          -51 callsubr
          21 callsubr
          endchar
        </CharString>
        <CharString name="uni0915094D0923">
          424 558 168 rmoveto
          -60 callsubr
          395 96 vlineto
          -238 88 callgsubr
          465 167 rmoveto
          -878 -59 239 -392 hlineto
          -64 callgsubr
          14 11 3 6 7 hvcurveto
          -87 69 362 -29 callsubr
          71 -239 hlineto
          9 callsubr
          406 87 321 callgsubr
        </CharString>
        <CharString name="uni0915094D0924">
          113 547 305 callsubr
          -567 -59 259 -87 vlineto
          6 -7 -11 3 -14 hhcurveto
          -202 -59 71 hlineto
          -7 -7 -4 -11 -16 vvcurveto
          -235 -99 callgsubr
          55 59 -72 callsubr
          227 97 callgsubr
          26 8 -8 -26 hvcurveto
          -392 69 392 vlineto
          26 8 8 26 vhcurveto
          40 102 callsubr
          -34 -59 55 210 callsubr
          -63 259 callgsubr
        </CharString>
        <CharString name="uni0915094D0924094D092F">
          601 891 63 callsubr
          -571 -160 rmoveto
          -56 callsubr
          169 399 295 callgsubr
          -1055 -59 239 -392 hlineto
          -64 callgsubr
          14 11 3 6 7 hvcurveto
          -87 69 310 -29 callsubr
          97 hlineto
          -51 callsubr
          -245 -9 callsubr
          220 251 callsubr
          -187 hlineto
          -89 callgsubr
        </CharString>
        <CharString name="uni0915094D0924094D0930">
          279 570 263 rmoveto
          332 callsubr
          -61 124 callgsubr
          282 vlineto
          349 callgsubr
          -733 -59 239 -392 hlineto
          -64 callgsubr
          14 11 3 6 7 hvcurveto
          -87 69 392 -29 callsubr
          48 hlineto
          245 callsubr
          75 hlineto
          endchar
        </CharString>
        <CharString name="uni0915094D0924094D0935">
          451 741 173 callgsubr
          -381 hlineto
          -56 callsubr
          117 453 vlineto
          143 callsubr
          -905 -59 239 -392 hlineto
          -64 callgsubr
          14 11 3 6 7 hvcurveto
          -87 69 362 -29 callsubr
          72 hlineto
          -51 callsubr
          -297 -9 callsubr
          272 vlineto
          26 5 5 26 vhcurveto
          75 hlineto
          -51 callsubr
          -219 144 callgsubr
        </CharString>
        <CharString name="uni0915094D0925">
          372 806 622 rmoveto
          -144 -451 hlineto
          -85 callsubr
          125 -61 callsubr
          176 -67 callsubr
          -154 -98 callgsubr
          -153 hlineto
          -56 callsubr
          220 54 59 -362 -59 239 -392 vlineto
          -64 callgsubr
          14 11 3 6 7 hvcurveto
          -87 69 259 -29 callsubr
          71 -136 hlineto
          -89 callgsubr
        </CharString>
        <CharString name="uni0915094D0926">
          271 320 455 123 callsubr
          273 -108 vlineto
          69 -59 rmoveto
          167 82 59 -732 -59 239 -392 vlineto
          -64 callgsubr
          14 11 3 6 7 hvcurveto
          -87 69 362 -29 callsubr
          72 hlineto
          -51 callsubr
          136 callsubr
          23 callgsubr
          197 -107 callsubr
          endchar
        </CharString>
        <CharString name="uni0915094D0928">
          420 710 455 rmoveto
          -390 hlineto
          -56 callsubr
          117 422 vlineto
          -157 70 callsubr
          197 26 callgsubr
          301 226 rmoveto
          -874 -59 239 -392 hlineto
          -64 callgsubr
          14 11 3 6 7 hvcurveto
          -87 69 362 -29 callsubr
          72 hlineto
          -51 callsubr
          136 callsubr
          71 -104 callsubr
          239 88 -396 69 -33 callgsubr
        </CharString>
        <CharString name="uni0915094D092A">
          277 574 -38 callgsubr
          -254 -108 123 callsubr
          112 -108 vlineto
          318 167 rmoveto
          -738 -59 239 -392 hlineto
          -64 callgsubr
          14 11 3 6 7 hvcurveto
          -87 69 362 -29 callsubr
          78 -239 75 callsubr
        </CharString>
        <CharString name="uni0915094D092A094D0930">
          277 567 52 callgsubr
          -247 88 callgsubr
          318 167 rmoveto
          -731 -59 239 -392 hlineto
          -64 callgsubr
          14 11 3 6 7 hvcurveto
          -87 69 362 -29 callsubr
          71 -209 hlineto
          4 callgsubr
        </CharString>
        <CharString name="uni0915094D092B">
          441 567 63 callgsubr
          482 108 rmoveto
          59 -895 -59 239 -392 vlineto
          -64 callgsubr
          14 11 3 6 7 hvcurveto
          -87 69 362 -29 callsubr
          71 -239 hlineto
          -106 callgsubr
          -101 callgsubr
        </CharString>
        <CharString name="uni0915094D092E">
          463 753 432 66 callgsubr
          -365 -75 callsubr
          -251 59 rmoveto
          -56 callsubr
          140 283 -131 vlineto
          326 190 rmoveto
          -917 -59 239 -392 hlineto
          -64 callgsubr
          14 11 3 6 7 hvcurveto
          -87 69 339 -29 callsubr
          72 72 callsubr
        </CharString>
        <CharString name="uni0915094D092F">
          367 657 -82 callsubr
          -337 -189 rmoveto
          -56 callsubr
          198 165 144 callsubr
          333 248 rmoveto
          -821 -59 239 -392 hlineto
          -64 callgsubr
          14 11 3 6 7 hvcurveto
          -87 69 281 -29 callsubr
          66 -158 hlineto
          -89 callgsubr
        </CharString>
        <CharString name="uni0915094D0930">
          93 527 563 50 callgsubr
        </CharString>
        <CharString name="uni0915094D0930.aTrad">
          122 556 305 callsubr
          -576 -59 269 -300 -8 vlineto
          -77 154 rlineto
          -16 callgsubr
          23 -203 68 372 hlineto
          171 callgsubr
          -207 35 callsubr
          -59 27 callgsubr
          229 -99 callsubr
          -63 hlineto
          -56 callsubr
          107 vlineto
          endchar
        </CharString>
        <CharString name="uni0915094D0930094D">
          -2 462 305 callsubr
          -482 -59 239 -362 vlineto
          -80 callgsubr
          -40 -16 callsubr
          362 -29 callsubr
          140 59 310 callsubr
          117 vlineto
          endchar
        </CharString>
        <CharString name="uni0915094D0932">
          422 719 455 rmoveto
          38 callsubr
          -224 hlineto
          -56 callsubr
          117 431 vlineto
          137 59 rmoveto
          -876 -59 239 -392 hlineto
          -64 callgsubr
          14 11 3 6 7 hvcurveto
          -87 69 362 -29 callsubr
          72 hlineto
          -51 callsubr
          -297 109 callgsubr
          272 80 callgsubr
          -176 69 176 -107 callsubr
          63 -396 69 563 68 hlineto
          endchar
        </CharString>
        <CharString name="uni0915094D0935">
          277 567 173 callgsubr
          -207 hlineto
          -56 callsubr
          117 279 vlineto
          143 callsubr
          -731 -59 239 -392 hlineto
          -64 callgsubr
          14 11 3 6 7 hvcurveto
          -87 69 362 -29 callsubr
          72 hlineto
          -51 callsubr
          -219 144 callgsubr
        </CharString>
        <CharString name="uni0915094D0935094D092F">
          546 836 -82 callsubr
          -343 -426 -54 callgsubr
          227 -107 callsubr
          34 59 -207 124 callgsubr
          344 248 callgsubr
          -203 hlineto
          -80 callgsubr
          447 485 rmoveto
          -1000 -59 239 -392 hlineto
          -64 callgsubr
          14 11 3 6 7 hvcurveto
          -87 69 392 -29 callsubr
          74 hlineto
          -2 -8 -1 -8 -9 vvcurveto
          -244 -99 callgsubr
          63 hlineto
          21 19 6 15 10 hvcurveto
          -14 13 20 285 callgsubr
        </CharString>
        <CharString name="uni0915094D0936">
          430 474 623 83 callsubr
          310 callsubr
          198 60 59 -368 -59 239 -392 vlineto
          -26 -8 -8 -26 vhcurveto
          -40 hlineto
          -26 -5 5 26 hvcurveto
          227 vlineto
          26 5 5 26 vhcurveto
          34 59 -55 hlineto
          -53 -26 -26 -53 hvcurveto
          -249 127 callgsubr
          197 vlineto
          53 -26 26 -53 vhcurveto
          160 -1 rmoveto
          304 callsubr
          75 59 vlineto
          endchar
        </CharString>
        <CharString name="uni0915094D0937">
          128 251 394 35 callgsubr
          311 85 rmoveto
          -144 -259 -106 20 callgsubr
          288 -306 242 callsubr
        </CharString>
        <CharString name="uni0915094D0937094D">
          4 149 537 rmoveto
          129 callgsubr
          -143 -98 callgsubr
          -39 253 callsubr
          302 -88 rmoveto
          57 -139 vlineto
          -55 callgsubr
          endchar
        </CharString>
        <CharString name="uni0915094D0937094D092E">
          491 781 432 66 callgsubr
          -365 -75 callsubr
          -348 21 35 callgsubr
          674 85 rmoveto
          -559 -59 233 -131 -99 hlineto
          -50 -26 -23 -46 -3 hvcurveto
          -109 20 callgsubr
          291 -119 255 callgsubr
        </CharString>
        <CharString name="uni0915094D0937094D092E094D">
          339 601 198 -75 callsubr
          -350 21 35 callgsubr
          552 26 rmoveto
          304 callgsubr
          -50 -26 -23 -46 -3 hvcurveto
          -111 20 callgsubr
          293 -119 hlineto
          258 callgsubr
          133 59 -133 131 vlineto
          endchar
        </CharString>
        <CharString name="uni0915094D0937094D092E094D092F">
          720 1010 -43 callgsubr
          -330 28 35 callgsubr
          903 85 rmoveto
          -788 -59 215 -138 -81 hlineto
          -47 -26 -20 -42 -5 hvcurveto
          -110 20 callgsubr
          291 -149 hlineto
          -14 callsubr
        </CharString>
        <CharString name="uni0915094D0937094D092F">
          400 690 -82 callsubr
          -439 -158 -68 callgsubr
          -39 253 callsubr
          132 135 callsubr
          583 85 rmoveto
          -442 -59 94 -48 callgsubr
          -189 hlineto
          5 5 3 8 13 vvcurveto
          148 -99 callsubr
          -82 -98 callsubr
          -148 vlineto
          -14 3 -8 6 -5 vhcurveto
          -44 -6 -15 -34 -51 vvcurveto
          -125 202 callsubr
          18 12 4 11 7 hvcurveto
          -93 69 221 -69 -45 334 callsubr
          -76 -105 callgsubr
          107 vlineto
          37 -103 callsubr
          291 -160 hlineto
          -89 callgsubr
        </CharString>
        <CharString name="uni0915094D0937094D0935">
          305 251 394 35 callgsubr
          488 85 rmoveto
          -346 -59 202 -392 hlineto
          -97 callgsubr
          -43 -109 vlineto
          -55 callgsubr
          291 -149 75 callsubr
        </CharString>
        <CharString name="uni0915094D0938">
          442 733 344 282 callsubr
          -163 -188 59 callgsubr
          306 90 rmoveto
          -896 -59 239 -392 hlineto
          -64 callgsubr
          14 11 3 6 7 hvcurveto
          -87 69 362 -29 callsubr
          71 -317 hlineto
          43 callsubr
        </CharString>
        <CharString name="uni0915094D0938094D091F">
          598 733 -25 callgsubr
          260 -78 -79 -98 callsubr
          -163 -31 59 callgsubr
          390 -106 rmoveto
          137 72 59 -1052 -59 239 -392 vlineto
          -64 callgsubr
          14 11 3 6 7 hvcurveto
          -87 69 362 -29 callsubr
          71 -317 hlineto
          84 callgsubr
          271 101 callsubr
        </CharString>
        <CharString name="uni0915094D0938094D0921">
          610 733 -25 callgsubr
          254 -78 -73 -98 callsubr
          -163 -31 59 callgsubr
          384 -106 293 callsubr
          -1064 -59 239 -392 vlineto
          -64 callgsubr
          14 11 3 6 7 hvcurveto
          -87 69 362 -29 callsubr
          71 -317 hlineto
          84 callgsubr
          274 vlineto
          -34 9 25 -16 42 hhcurveto
          -19 callsubr
        </CharString>
        <CharString name="uni0915094D0938094D0924">
          657 947 485 rmoveto
          -125 -98 callsubr
          -62 -116 vlineto
          -78 callgsubr
          316 hlineto
          -377 -188 59 callgsubr
          521 90 rmoveto
          -1111 -59 239 -392 hlineto
          -64 callgsubr
          14 11 3 6 7 hvcurveto
          -87 69 362 -29 callsubr
          71 -317 hlineto
          84 callgsubr
          281 -206 -50 callsubr
        </CharString>
        <CharString name="uni0915094D0938094D092A094D0930">
          628 918 52 callgsubr
          -291 -219 rmoveto
          -78 callgsubr
          113 -219 hlineto
          -174 31 59 callgsubr
          492 90 rmoveto
          -1082 -59 239 -392 hlineto
          -64 callgsubr
          14 11 3 6 7 hvcurveto
          -87 69 362 -29 callsubr
          71 -317 hlineto
          84 callgsubr
          282 -98 103 callgsubr
        </CharString>
        <CharString name="uni0915094D0938094D092A094D0932">
          945 1242 485 rmoveto
          113 callsubr
          395 431 vlineto
          -615 -219 rmoveto
          -78 callgsubr
          111 -219 hlineto
          -172 31 59 callgsubr
          809 90 rmoveto
          -1399 -59 239 -392 hlineto
          -64 callgsubr
          14 11 3 6 7 hvcurveto
          -87 69 362 -29 callsubr
          71 -317 hlineto
          84 callgsubr
          280 328 callsubr
          -71 callgsubr
          -8 -58 callsubr
          -426 69 563 68 hlineto
          endchar
        </CharString>
        <CharString name="uni0916">
          170 604 622 rmoveto
          -624 -59 172 hlineto
          26 5 -5 -26 hvcurveto
          -196 vlineto
          -26 -5 -5 -26 vhcurveto
          -35 166 -69 -392 0 callgsubr
        </CharString>
        <CharString name="uni0916093C">
          170 126 -148 -39 callgsubr
          478 684 rmoveto
          -624 -59 172 hlineto
          26 5 -5 -26 hvcurveto
          -196 vlineto
          -26 -5 -5 -26 vhcurveto
          -35 166 -69 -392 0 callgsubr
        </CharString>
        <CharString name="uni0916093C094D">
          36 126 -148 -39 callgsubr
          235 443 58 callgsubr
        </CharString>
        <CharString name="uni0916093C094D0924">
          378 126 -148 -39 callgsubr
          686 684 rmoveto
          -832 -59 172 hlineto
          17 callsubr
          424 -78 -125 -98 callsubr
          -189 vlineto
          -57 callsubr
          -55 -50 callsubr
        </CharString>
        <CharString name="uni0916093C094D092E">
          491 126 -148 -39 callgsubr
          673 494 rmoveto
          -88 131 88 hlineto
          -157 -365 -75 callsubr
          301 249 rmoveto
          -963 -59 172 hlineto
          -72 callgsubr
          398 164 callsubr
          -147 vlineto
          -10 callgsubr
          197 -37 callsubr
          -219 106 callsubr
          23 20 7 19 8 hvcurveto
          -17 13 22 -9 30 347 callsubr
          88 -373 69 -33 callgsubr
        </CharString>
        <CharString name="uni0916093C094D092F">
          443 126 -148 -39 callgsubr
          607 233 1 callgsubr
          -897 -59 172 hlineto
          -72 callgsubr
          285 -40 callsubr
          -168 hlineto
          -10 callgsubr
          197 -37 callsubr
          -219 106 callsubr
          17 15 3 10 10 hvcurveto
          -29 10 25 -14 39 hhcurveto
          -93 callsubr
        </CharString>
        <CharString name="uni0916093C094D0930">
          170 390 -130 -39 callgsubr
          214 666 41 callgsubr
        </CharString>
        <CharString name="uni0916093C094D0930094D">
          9 155 -133 -39 callgsubr
          -38 293 53 callgsubr
        </CharString>
        <CharString name="uni0916093C094D0935">
          332 126 -148 -39 callgsubr
          640 684 14 callgsubr
        </CharString>
        <CharString name="uni0916093C094D0936">
          501 126 -148 -39 callgsubr
          -9 308 rmoveto
          56 hlineto
          -34 callsubr
          180 59 -444 194 callgsubr
          428 530 133 callgsubr
          -157 hlineto
          -10 callgsubr
          172 165 callsubr
          59 -49 192 callsubr
          -55 -17 callgsubr
        </CharString>
        <CharString name="uni0916093C094D0938">
          513 126 -148 -39 callgsubr
          678 406 282 callsubr
          349 callgsubr
          -967 -59 172 hlineto
          -72 callgsubr
          366 hlineto
          -70 callgsubr
          102 -69 -229 hlineto
          -10 callgsubr
          172 165 callsubr
          59 -49 192 callsubr
          -55 -8 callgsubr
        </CharString>
        <CharString name="uni0916094D">
          36 361 381 58 callgsubr
        </CharString>
        <CharString name="uni0916094D0916">
          586 1020 622 rmoveto
          -1040 -59 172 hlineto
          -72 callgsubr
          324 hlineto
          -35 callsubr
          -69 -254 hlineto
          -57 callsubr
          -55 vlineto
          77 callsubr
        </CharString>
        <CharString name="uni0916094D0924">
          378 812 622 rmoveto
          -832 -59 172 hlineto
          17 callsubr
          424 -78 -125 -98 callsubr
          -189 vlineto
          -57 callsubr
          -55 -50 callsubr
        </CharString>
        <CharString name="uni0916094D0928">
          491 624 -3 callsubr
          -945 -59 172 hlineto
          -72 callgsubr
          537 149 callgsubr
          -189 vlineto
          67 callsubr
          15 callgsubr
        </CharString>
        <CharString name="uni0916094D092E">
          491 799 432 rmoveto
          -88 131 88 hlineto
          -157 -365 -75 callsubr
          301 249 rmoveto
          -963 -59 172 hlineto
          -72 callgsubr
          398 164 callsubr
          -147 vlineto
          -10 callgsubr
          197 -37 callsubr
          -219 106 callsubr
          23 20 7 19 8 hvcurveto
          -17 13 22 -9 30 347 callsubr
          88 -373 69 -33 callgsubr
        </CharString>
        <CharString name="uni0916094D092F">
          443 733 171 1 callgsubr
          -897 -59 172 hlineto
          -72 callgsubr
          285 -40 callsubr
          -168 hlineto
          -10 callgsubr
          197 -37 callsubr
          -219 106 callsubr
          17 15 3 10 10 hvcurveto
          -29 10 25 -14 39 hhcurveto
          -93 callsubr
        </CharString>
        <CharString name="uni0916094D0930">
          170 604 622 41 callgsubr
        </CharString>
        <CharString name="uni0916094D0930094D">
          9 117 246 53 callgsubr
        </CharString>
        <CharString name="uni0916094D0935">
          332 766 622 14 callgsubr
        </CharString>
        <CharString name="uni0916094D0936">
          501 117 246 rmoveto
          56 hlineto
          -34 callsubr
          180 59 -444 194 callgsubr
          428 530 133 callgsubr
          -157 hlineto
          -10 callgsubr
          172 165 callsubr
          59 -49 192 callsubr
          -55 -17 callgsubr
        </CharString>
        <CharString name="uni0917">
          98 135 137 -64 callsubr
          348 485 rmoveto
          -552 -59 -71 callsubr
          277 callgsubr
        </CharString>
        <CharString name="uni0917093C">
          98 119 -87 -39 callgsubr
          16 138 -64 callsubr
          348 485 rmoveto
          -552 -59 -71 callsubr
          277 callgsubr
        </CharString>
        <CharString name="uni0917093C094D">
          -26 120 -87 -39 callgsubr
          15 138 -64 callsubr
          224 485 rmoveto
          -428 -59 -71 callsubr
          124 vlineto
          endchar
        </CharString>
        <CharString name="uni0917093C094D0930">
          98 290 -130 -39 callgsubr
          -155 251 93 callsubr
          348 415 rmoveto
          -552 -59 235 -78 -101 hlineto
          275 callsubr
          104 -324 -24 callsubr
        </CharString>
        <CharString name="uni0917093C094D0930094D">
          -69 316 -104 -39 callgsubr
          -105 -32 104 callgsubr
        </CharString>
        <CharString name="uni0917094D">
          -26 135 137 -64 callsubr
          224 485 rmoveto
          -428 -59 -71 callsubr
          124 vlineto
          endchar
        </CharString>
        <CharString name="uni0917094D0917">
          428 465 137 -64 callsubr
          -379 263 callsubr
          678 485 rmoveto
          -882 -59 -71 callsubr
          261 -137 -101 vlineto
          -105 callsubr
          -190 -36 callgsubr
          406 277 callgsubr
        </CharString>
        <CharString name="uni0917094D0918">
          340 630 171 rmoveto
          -80 callgsubr
          -110 104 callsubr
          4 27 1 vhcurveto
          143 hlineto
          -495 -426 -64 callsubr
          590 485 rmoveto
          -794 -59 -71 callsubr
          116 vlineto
          253 callgsubr
          -136 -86 callsubr
          -144 -99 callgsubr
          133 -92 callsubr
        </CharString>
        <CharString name="uni0917094D091C">
          411 135 137 -64 callsubr
          661 485 rmoveto
          -865 -59 -71 callsubr
          417 -78 -156 68 callsubr
          87 -13 callgsubr
        </CharString>
        <CharString name="uni0917094D0923">
          411 545 168 rmoveto
          -60 callsubr
          395 96 vlineto
          -410 -426 -64 callsubr
          661 485 rmoveto
          -865 -59 -71 callsubr
          96 -406 -57 callgsubr
          406 87 321 callgsubr
        </CharString>
        <CharString name="uni0917094D0926">
          265 135 137 -64 callsubr
          433 289 rmoveto
          137 75 59 -712 -59 235 -137 -101 vlineto
          -105 callsubr
          -190 -36 callgsubr
          406 264 -78 -89 vlineto
          -53 -26 -26 -53 hvcurveto
          -249 -6 callgsubr
        </CharString>
        <CharString name="uni0917094D0927">
          338 135 137 -64 callsubr
          -204 426 rmoveto
          -71 callsubr
          64 59 -368 vlineto
          792 hmoveto
          -144 -451 8 callsubr
          137 -92 callsubr
        </CharString>
        <CharString name="uni0917094D0927094D092F">
          607 135 137 -64 callsubr
          -204 426 rmoveto
          -71 callsubr
          64 59 -368 vlineto
          917 -451 1 callgsubr
          -413 -59 65 -40 callsubr
          -203 8 callsubr
          148 hlineto
          21 13 5 16 5 hvcurveto
          -14 13 21 -7 27 hhcurveto
          -93 callsubr
        </CharString>
        <CharString name="uni0917094D0927094D0935">
          512 135 137 -64 callsubr
          -204 426 rmoveto
          -71 callsubr
          64 59 -368 vlineto
          966 hmoveto
          -318 -59 174 -392 hlineto
          -26 -8 -8 -26 vhcurveto
          -40 hlineto
          -26 -5 5 26 hvcurveto
          227 vlineto
          26 5 5 26 vhcurveto
          34 59 -55 hlineto
          -53 -26 -26 -53 hvcurveto
          -235 vlineto
          -73 callgsubr
          148 hlineto
          21 13 5 16 5 hvcurveto
          -14 13 21 -7 27 hhcurveto
          63 -92 callsubr
        </CharString>
        <CharString name="uni0917094D0928">
          402 535 168 -93 callgsubr
          -400 -289 -64 callsubr
          652 485 rmoveto
          -856 -59 -71 callsubr
          408 -78 -238 vlineto
          139 callgsubr
        </CharString>
        <CharString name="uni0917094D0928094D092F">
          674 964 -21 callsubr
          -400 -229 -64 callsubr
          924 485 rmoveto
          -1128 -59 -71 callsubr
          476 184 callsubr
          -321 -98 callsubr
          -189 vlineto
          -14 callsubr
        </CharString>
        <CharString name="uni0917094D092C">
          295 483 137 -74 callsubr
          -424 263 callsubr
          553 485 rmoveto
          -757 -59 -71 callsubr
          309 -238 vlineto
          170 callgsubr
        </CharString>
        <CharString name="uni0917094D092D">
          445 135 137 -64 callsubr
          -204 426 rmoveto
          -71 callsubr
          64 59 -368 vlineto
          573 -454 rmoveto
          -26 -5 -5 -26 vhcurveto
          -47 hlineto
          -26 -5 5 26 hvcurveto
          143 vlineto
          26 5 5 26 vhcurveto
          78 hlineto
          326 280 rmoveto
          -144 -221 -113 142 hlineto
          -9 callgsubr
          113 -342 69 -1 callsubr
          endchar
        </CharString>
        <CharString name="uni0917094D092D094D092F">
          714 135 137 -64 callsubr
          -204 426 rmoveto
          -71 callsubr
          64 59 -368 vlineto
          999 -451 11 callsubr
        </CharString>
        <CharString name="uni0917094D092E">
          445 735 432 66 callgsubr
          -365 -75 callsubr
          -418 -236 -64 callsubr
          695 485 rmoveto
          -899 -59 -71 callsubr
          269 -131 -99 vlineto
          -53 -26 -26 -53 hvcurveto
          107 callgsubr
        </CharString>
        <CharString name="uni0917094D092F">
          354 644 -82 callsubr
          -509 -426 -64 callsubr
          604 485 rmoveto
          -808 -59 -71 callsubr
          156 248 callgsubr
          -217 hlineto
          -89 callgsubr
        </CharString>
        <CharString name="uni0917094D0930">
          98 135 207 93 callsubr
          348 415 rmoveto
          -552 -59 235 -78 -101 hlineto
          275 callsubr
          104 -324 -24 callsubr
        </CharString>
        <CharString name="uni0917094D0930094D">
          -69 211 -50 104 callgsubr
        </CharString>
        <CharString name="uni0917094D0930094D092F">
          346 636 -82 callsubr
          -501 -356 93 callsubr
          596 415 rmoveto
          -800 -59 235 -78 -101 hlineto
          275 callsubr
          148 248 callgsubr
          -158 hlineto
          -241 -266 rlineto
          85 hlineto
          160 176 rlineto
          -32 9 24 -16 42 hhcurveto
          -93 callsubr
        </CharString>
        <CharString name="uni0917094D0932">
          404 135 137 -64 callsubr
          654 485 rmoveto
          -858 -59 -71 callsubr
          417 -78 -80 vlineto
          -96 callgsubr
          -206 69 206 vlineto
          26 5 5 26 vhcurveto
          63 -426 69 563 68 hlineto
          endchar
        </CharString>
        <CharString name="uni0917094D0935">
          259 135 137 -64 callsubr
          509 485 rmoveto
          -713 -59 -71 callsubr
          265 -392 vlineto
          -64 callgsubr
          14 11 3 6 7 hvcurveto
          -87 69 -1 callsubr
          endchar
        </CharString>
        <CharString name="uni0917094D0938">
          424 715 344 282 callsubr
          -580 -426 -64 callsubr
          674 485 rmoveto
          -878 -59 -71 callsubr
          237 vlineto
          -100 callsubr
          271 -285 68 -1 callsubr
          endchar
        </CharString>
        <CharString name="uni0918">
          2 292 171 rmoveto
          -80 callgsubr
          -110 104 callsubr
          4 27 1 vhcurveto
          143 hlineto
          143 callsubr
          -456 -59 82 hlineto
          253 callgsubr
          -136 -86 callsubr
          -144 -99 callgsubr
          133 -92 callsubr
        </CharString>
        <CharString name="uni0918093C094D0930">
          2 240 -130 -39 callgsubr
          52 245 57 callgsubr
        </CharString>
        <CharString name="uni0918093C094D0930094D">
          -114 327 167 rmoveto
          -179 -105 callgsubr
          108 -107 callsubr
          68 59 -68 -105 callgsubr
          105 vlineto
          26 5 4 27 1 vhcurveto
          178 59 -347 -59 82 hlineto
          253 callgsubr
          -119 -86 callsubr
          -131 -99 callgsubr
          116 79 callsubr
          -42 -139 242 callgsubr
        </CharString>
        <CharString name="uni0918094D">
          -163 278 305 callsubr
          -298 -59 76 vlineto
          19 callgsubr
          -141 -86 callsubr
          -144 -99 callgsubr
          151 59 -130 104 callsubr
          5 26 vhcurveto
          endchar
        </CharString>
        <CharString name="uni0918094D0928">
          313 593 485 rmoveto
          203 callgsubr
          -236 vlineto
          -24 -8 -9 -26 vhcurveto
          -94 104 callsubr
          5 26 vhcurveto
          445 hlineto
          -157 -395 -93 callgsubr
          301 196 rmoveto
          -757 -59 76 252 callsubr
          -141 -86 callsubr
          -144 -99 callgsubr
          119 221 callsubr
          15 callgsubr
        </CharString>
        <CharString name="uni0918094D092E">
          345 636 28 callgsubr
          -306 -236 227 callgsubr
          306 164 callsubr
          -183 vlineto
          -24 -8 -9 -26 vhcurveto
          537 485 rmoveto
          -799 -59 76 252 callsubr
          -141 -86 callsubr
          -144 -99 callgsubr
          119 221 callsubr
          222 callgsubr
          113 -373 69 563 74 vlineto
          endchar
        </CharString>
        <CharString name="uni0918094D092F">
          235 545 -82 callsubr
          -397 -426 227 callgsubr
          193 -40 callsubr
          -204 hlineto
          -24 -8 -9 -26 vhcurveto
          427 485 rmoveto
          -689 -59 76 252 callsubr
          -141 -86 callsubr
          -144 -99 callgsubr
          119 221 callsubr
          337 callsubr
          563 55 vlineto
          endchar
        </CharString>
        <CharString name="uni0918094D0930">
          2 292 201 57 callgsubr
        </CharString>
        <CharString name="uni0918094D0930094D">
          -114 327 305 callsubr
          -347 -59 82 vlineto
          253 callgsubr
          -119 -86 callsubr
          -131 -99 callgsubr
          116 102 callgsubr
          -179 314 callgsubr
          108 -107 callsubr
          68 59 -68 -105 callgsubr
          105 vlineto
          26 5 4 27 1 vhcurveto
          endchar
        </CharString>
        <CharString name="uni0919">
          -63 273 308 -39 callgsubr
          -293 228 rmoveto
          -59 232 -78 -73 vlineto
          -65 callgsubr
          -53 26 -26 53 vhcurveto
          85 -104 callsubr
          -63 callgsubr
          121 137 90 59 hlineto
          endchar
        </CharString>
        <CharString name="uni0919093C094D0930">
          -63 136 -228 -39 callgsubr
          137 450 -39 callgsubr
          -293 228 rmoveto
          -59 232 -78 -73 vlineto
          -65 callgsubr
          -47 21 -26 42 -5 vhcurveto
          -75 -141 -15 callgsubr
          -74 142 rlineto
          38 6 19 26 45 vvcurveto
          -63 callgsubr
          121 137 90 59 hlineto
          endchar
        </CharString>
        <CharString name="uni0919093C094D0930094D">
          -63 94 -245 -39 callgsubr
          87 hmoveto
          16 callgsubr
          16 467 -39 callgsubr
          -293 228 rmoveto
          -59 232 -78 -73 vlineto
          -65 callgsubr
          -47 21 -26 42 -5 vhcurveto
          -75 -141 -15 callgsubr
          -74 142 rlineto
          38 6 19 26 45 vvcurveto
          -63 callgsubr
          121 137 90 59 hlineto
          endchar
        </CharString>
        <CharString name="uni0919094D">
          -63 131 -61 rmoveto
          16 callgsubr
          66 369 -39 callgsubr
          -293 228 rmoveto
          -59 232 -78 -73 vlineto
          -65 callgsubr
          -53 26 -26 53 vhcurveto
          85 -104 callsubr
          -63 callgsubr
          121 137 90 59 hlineto
          endchar
        </CharString>
        <CharString name="uni0919094D0930">
          -63 273 308 -39 callgsubr
          -293 228 rmoveto
          -59 232 -78 -73 vlineto
          -65 callgsubr
          -47 21 -26 42 -5 vhcurveto
          -75 -141 -15 callgsubr
          -74 142 rlineto
          38 6 19 26 45 vvcurveto
          -63 callgsubr
          121 137 90 59 hlineto
          endchar
        </CharString>
        <CharString name="uni091A">
          -28 406 622 124 callsubr
        </CharString>
        <CharString name="uni091A093C094D0930">
          -23 200 -130 -39 callgsubr
          206 666 111 callsubr
        </CharString>
        <CharString name="uni091A093C094D0930094D">
          -168 266 622 rmoveto
          -286 -59 286 hlineto
          -396 vmoveto
          -98 -105 callgsubr
          197 vlineto
          191 callgsubr
          -69 -160 242 callgsubr
        </CharString>
        <CharString name="uni091A094D">
          -178 137 297 callgsubr
          41 55 callsubr
          119 59 -98 -105 callgsubr
          -157 454 rmoveto
          -59 286 59 vlineto
          endchar
        </CharString>
        <CharString name="uni091A094D091A">
          166 600 622 rmoveto
          -620 -59 476 -392 hlineto
          -26 -8 -8 171 callsubr
          21 5 10 28 vhcurveto
          39 59 -174 -59 41 252 callsubr
          -230 vlineto
          -24 -8 -9 171 callsubr
          21 5 10 28 vhcurveto
          9 59 -174 81 callgsubr
          156 callgsubr
          85 221 callsubr
          83 -92 callsubr
        </CharString>
        <CharString name="uni091A094D091B">
          294 525 485 -76 callgsubr
          -748 -59 290 5 callgsubr
          -90 37 callsubr
          17 14 2 6 10 hvcurveto
          -7 -99 callgsubr
          240 76 callgsubr
        </CharString>
        <CharString name="uni091A094D091B094D0935">
          294 525 6 callgsubr
          -99 -662 rmoveto
          267 callgsubr
          110 -68 hlineto
          -24 -7 -7 -23 vhcurveto
          234 662 rmoveto
          59 -748 -59 290 5 callgsubr
          -90 37 callsubr
          17 14 2 6 10 hvcurveto
          -7 159 callgsubr
        </CharString>
        <CharString name="uni091A094D0928">
          289 422 -3 callsubr
          -743 -59 599 149 callgsubr
          -236 37 callsubr
          30 18 7 15 10 hvcurveto
          -15 13 21 -7 28 hhcurveto
          15 callgsubr
        </CharString>
        <CharString name="uni091A094D092E">
          332 622 28 callgsubr
          326 249 rmoveto
          -786 -59 460 164 callsubr
          -183 37 callsubr
          30 18 7 15 10 hvcurveto
          -15 13 21 -7 28 hhcurveto
          209 callgsubr
        </CharString>
        <CharString name="uni091A094D092F">
          241 531 171 1 callgsubr
          -695 -59 347 -40 callsubr
          -204 hlineto
          42 callsubr
          30 18 7 15 10 hvcurveto
          -15 13 21 285 callgsubr
        </CharString>
        <CharString name="uni091A094D0930">
          -23 406 622 111 callsubr
        </CharString>
        <CharString name="uni091A094D0930094D">
          -168 137 395 rmoveto
          191 callgsubr
          42 -98 314 callgsubr
          -157 424 rmoveto
          -59 286 59 vlineto
          endchar
        </CharString>
        <CharString name="uni091B">
          36 callsubr
          240 76 callgsubr
        </CharString>
</ttFont>
